<svg width="1440" height="132" viewBox="0 0 1440 132" fill="none" xmlns="http://www.w3.org/2000/svg">
<rect x="5" y="5" width="1430" height="122" rx="29" fill="#560BAD" stroke="black" stroke-width="10"/>
<line x1="825" y1="2" x2="825" y2="131" stroke="black" stroke-width="10"/>
<rect x="3.5" y="3.5" width="229" height="125" rx="30.5" fill="#F445B2" stroke="black" stroke-width="7"/>
<path d="M49.3476 101C45.1666 101 41.5431 100.21 38.477 98.6308C35.4109 97.0203 33.0262 94.8678 31.3228 92.1734C29.6504 89.479 28.8142 86.5213 28.8142 83.3003V55.0552C28.8142 51.8033 29.6504 48.8457 31.3228 46.1822C33.0262 43.4878 35.4109 41.3508 38.477 39.7713C41.5431 38.1608 45.1666 37.3556 49.3476 37.3556H63.656C67.837 37.3556 71.4606 38.1608 74.5267 39.7713C77.6237 41.3508 80.0084 43.4878 81.6808 46.1822C83.3533 48.8457 84.1895 51.8033 84.1895 55.0552V83.3003C84.1895 86.5213 83.3533 89.479 81.6808 92.1734C80.0084 94.8678 77.6237 97.0203 74.5267 98.6308C71.4606 100.21 67.837 101 63.656 101H49.3476ZM53.2499 79.9555H64.8639L69.5559 79.3981L72.5755 76.4714L73.2259 72.4762V60.2583H59.7537V65.2291H68.3016V71.7793C68.1467 72.2748 68.0383 72.7394 67.9764 73.173C67.9145 73.6066 67.8061 74.0711 67.6512 74.5667L64.5851 75.0312H53.3428L50.509 74.5667L49.8586 71.5935V49.6199L50.3232 47.0648L53.3428 46.368H65.4213L70.2063 47.1578L71.1354 42.187L65.7465 41.5366H53.2499L48.5114 42.2799L45.5383 45.2531L44.8879 49.1554V72.4762L45.5383 76.4714L48.6043 79.3981L53.2499 79.9555ZM104.351 101C100.17 101 96.5467 100.21 93.4806 98.6308C90.4145 97.0203 88.0298 94.8678 86.3264 92.1734C84.654 89.479 83.8178 86.5213 83.8178 83.3003V55.0552C83.8178 51.8033 84.654 48.8457 86.3264 46.1822C88.0298 43.4878 90.4145 41.3508 93.4806 39.7713C96.5467 38.1608 100.17 37.3556 104.351 37.3556H118.66C122.841 37.3556 126.464 38.1608 129.53 39.7713C132.627 41.3508 135.012 43.4878 136.684 46.1822C138.357 48.8457 139.193 51.8033 139.193 55.0552V83.3003C139.193 86.5213 138.357 89.479 136.684 92.1734C135.012 94.8678 132.627 97.0203 129.53 98.6308C126.464 100.21 122.841 101 118.66 101H104.351ZM106.86 79.9555H118.056L123.491 79.3052L122.33 74.2879L117.963 75.0312H107.139L104.073 74.5667L103.422 71.7793V49.4341L103.887 46.879L107.139 46.368H117.777L122.562 47.1578L123.491 42.187L118.056 41.5366H106.86L102.075 42.0941L99.1482 45.0672L98.4514 48.9695V72.5691L99.1482 76.4714L102.168 79.3981L106.86 79.9555ZM159.355 101C155.174 101 151.55 100.21 148.484 98.6308C145.418 97.0203 143.033 94.8678 141.33 92.1734C139.658 89.479 138.821 86.5213 138.821 83.3003V55.0552C138.821 51.8033 139.658 48.8457 141.33 46.1822C143.033 43.4878 145.418 41.3508 148.484 39.7713C151.55 38.1608 155.174 37.3556 159.355 37.3556H173.663C177.844 37.3556 181.468 38.1608 184.534 39.7713C187.631 41.3508 190.016 43.4878 191.688 46.1822C193.361 48.8457 194.197 51.8033 194.197 55.0552V83.3003C194.197 86.5213 193.361 89.479 191.688 92.1734C190.016 94.8678 187.631 97.0203 184.534 98.6308C181.468 100.21 177.844 101 173.663 101H159.355ZM152.712 79.9555H158.24L159.448 65.7865H176.59L177.937 79.9555H183.233L179.563 45.346L176.683 42.4657L170.504 41.5366H165.534L159.355 42.4657L156.521 45.346L152.712 79.9555ZM159.866 61.3268L161.26 47.1578L165.766 46.4609H170.318L174.685 47.1578L176.218 61.3268H159.866Z" fill="black"/>
<path d="M269.6 72.2H261.984L260.896 77H256.48L261.824 54.6H269.76L275.104 77H270.688L269.6 72.2ZM262.88 68.168H268.672L266.08 56.712H265.504L262.88 68.168ZM281.45 77H277.418V54.6H281.45V63.432H282.026C282.452 62.5573 283.071 61.8853 283.882 61.416C284.692 60.9253 285.727 60.68 286.986 60.68C287.924 60.68 288.81 60.8613 289.642 61.224C290.495 61.5867 291.231 62.12 291.85 62.824C292.49 63.5067 292.991 64.3493 293.354 65.352C293.738 66.3547 293.93 67.496 293.93 68.776V69.352C293.93 70.6533 293.748 71.8053 293.386 72.808C293.023 73.8107 292.532 74.664 291.914 75.368C291.295 76.0507 290.559 76.5733 289.706 76.936C288.874 77.2773 287.967 77.448 286.986 77.448C286.26 77.448 285.631 77.3733 285.098 77.224C284.564 77.0747 284.095 76.872 283.69 76.616C283.306 76.36 282.975 76.072 282.698 75.752C282.442 75.4107 282.218 75.0587 282.026 74.696H281.45V77ZM285.674 73.608C286.932 73.608 287.946 73.224 288.714 72.456C289.503 71.6667 289.898 70.6 289.898 69.256V68.872C289.898 67.528 289.503 66.472 288.714 65.704C287.946 64.9147 286.932 64.52 285.674 64.52C284.415 64.52 283.391 64.9253 282.602 65.736C281.834 66.5253 281.45 67.5707 281.45 68.872V69.256C281.45 70.5573 281.834 71.6133 282.602 72.424C283.391 73.2133 284.415 73.608 285.674 73.608ZM313.236 69.256C313.236 70.5787 313.012 71.752 312.564 72.776C312.116 73.7787 311.508 74.632 310.74 75.336C309.972 76.0187 309.086 76.5413 308.084 76.904C307.102 77.2667 306.068 77.448 304.98 77.448C303.892 77.448 302.846 77.2667 301.844 76.904C300.862 76.5413 299.988 76.0187 299.22 75.336C298.452 74.632 297.844 73.7787 297.396 72.776C296.948 71.752 296.724 70.5787 296.724 69.256V68.872C296.724 67.5707 296.948 66.4187 297.396 65.416C297.844 64.392 298.452 63.528 299.22 62.824C299.988 62.12 300.862 61.5867 301.844 61.224C302.846 60.8613 303.892 60.68 304.98 60.68C306.068 60.68 307.102 60.8613 308.084 61.224C309.086 61.5867 309.972 62.12 310.74 62.824C311.508 63.528 312.116 64.392 312.564 65.416C313.012 66.4187 313.236 67.5707 313.236 68.872V69.256ZM304.98 73.608C305.556 73.608 306.1 73.512 306.612 73.32C307.124 73.128 307.572 72.8507 307.956 72.488C308.34 72.1253 308.638 71.688 308.852 71.176C309.086 70.6427 309.204 70.0453 309.204 69.384V68.744C309.204 68.0827 309.086 67.496 308.852 66.984C308.638 66.4507 308.34 66.0027 307.956 65.64C307.572 65.2773 307.124 65 306.612 64.808C306.1 64.616 305.556 64.52 304.98 64.52C304.404 64.52 303.86 64.616 303.348 64.808C302.836 65 302.388 65.2773 302.004 65.64C301.62 66.0027 301.31 66.4507 301.076 66.984C300.862 67.496 300.756 68.0827 300.756 68.744V69.384C300.756 70.0453 300.862 70.6427 301.076 71.176C301.31 71.688 301.62 72.1253 302.004 72.488C302.388 72.8507 302.836 73.128 303.348 73.32C303.86 73.512 304.404 73.608 304.98 73.608ZM328.029 61.128H332.061V77H328.029V74.696H327.453C326.749 76.5307 325.235 77.448 322.909 77.448C322.12 77.448 321.384 77.32 320.701 77.064C320.019 76.808 319.421 76.4133 318.909 75.88C318.397 75.3467 317.992 74.6853 317.693 73.896C317.416 73.0853 317.277 72.136 317.277 71.048V61.128H321.309V70.216C321.309 71.3467 321.576 72.232 322.109 72.872C322.643 73.4907 323.443 73.8 324.509 73.8C325.725 73.8 326.611 73.416 327.165 72.648C327.741 71.8587 328.029 70.792 328.029 69.448V61.128ZM336.423 61.128H341.127V54.6H345.159V61.128H350.887V64.968H345.159V72.2C345.159 72.84 345.447 73.16 346.023 73.16H350.311V77H343.591C342.866 77 342.268 76.7653 341.799 76.296C341.351 75.8267 341.127 75.2293 341.127 74.504V64.968H336.423V61.128Z" fill="white"/>
<path d="M382.528 71.552V80H378.304V57.6H387.072C388.224 57.6 389.227 57.792 390.08 58.176C390.933 58.5387 391.637 59.0293 392.192 59.648C392.768 60.2453 393.195 60.9387 393.472 61.728C393.771 62.496 393.92 63.2853 393.92 64.096V64.864C393.92 65.696 393.771 66.5173 393.472 67.328C393.195 68.1173 392.768 68.832 392.192 69.472C391.637 70.0907 390.933 70.592 390.08 70.976C389.227 71.36 388.224 71.552 387.072 71.552H382.528ZM382.528 67.52H386.656C387.595 67.52 388.331 67.264 388.864 66.752C389.419 66.24 389.696 65.5787 389.696 64.768V64.384C389.696 63.5733 389.419 62.912 388.864 62.4C388.331 61.888 387.595 61.632 386.656 61.632H382.528V67.52ZM413.642 72.256C413.642 73.5787 413.418 74.752 412.97 75.776C412.522 76.7787 411.914 77.632 411.146 78.336C410.378 79.0187 409.492 79.5413 408.49 79.904C407.508 80.2667 406.474 80.448 405.386 80.448C404.298 80.448 403.252 80.2667 402.25 79.904C401.268 79.5413 400.394 79.0187 399.626 78.336C398.858 77.632 398.25 76.7787 397.802 75.776C397.354 74.752 397.13 73.5787 397.13 72.256V71.872C397.13 70.5707 397.354 69.4187 397.802 68.416C398.25 67.392 398.858 66.528 399.626 65.824C400.394 65.12 401.268 64.5867 402.25 64.224C403.252 63.8613 404.298 63.68 405.386 63.68C406.474 63.68 407.508 63.8613 408.49 64.224C409.492 64.5867 410.378 65.12 411.146 65.824C411.914 66.528 412.522 67.392 412.97 68.416C413.418 69.4187 413.642 70.5707 413.642 71.872V72.256ZM405.386 76.608C405.962 76.608 406.506 76.512 407.018 76.32C407.53 76.128 407.978 75.8507 408.362 75.488C408.746 75.1253 409.044 74.688 409.258 74.176C409.492 73.6427 409.61 73.0453 409.61 72.384V71.744C409.61 71.0827 409.492 70.496 409.258 69.984C409.044 69.4507 408.746 69.0027 408.362 68.64C407.978 68.2773 407.53 68 407.018 67.808C406.506 67.616 405.962 67.52 405.386 67.52C404.81 67.52 404.266 67.616 403.754 67.808C403.242 68 402.794 68.2773 402.41 68.64C402.026 69.0027 401.716 69.4507 401.482 69.984C401.268 70.496 401.162 71.0827 401.162 71.744V72.384C401.162 73.0453 401.268 73.6427 401.482 74.176C401.716 74.688 402.026 75.1253 402.41 75.488C402.794 75.8507 403.242 76.128 403.754 76.32C404.266 76.512 404.81 76.608 405.386 76.608ZM416.916 64.128H423.635V66.432H424.212C424.51 65.5573 425.012 64.8853 425.716 64.416C426.441 63.9253 427.305 63.68 428.308 63.68C429.886 63.68 431.156 64.1813 432.116 65.184C433.076 66.1653 433.556 67.6693 433.556 69.696V70.4L429.396 70.784V70.336C429.396 69.4613 429.172 68.768 428.724 68.256C428.276 67.7227 427.604 67.456 426.708 67.456C425.812 67.456 425.108 67.7653 424.595 68.384C424.084 69.0027 423.828 69.888 423.828 71.04V76.16H427.476V80H416.532V76.16H419.796V67.968H416.916V64.128ZM436.829 64.128H441.533V57.6H445.565V64.128H451.293V67.968H445.565V75.2C445.565 75.84 445.853 76.16 446.429 76.16H450.717V80H443.997C443.272 80 442.675 79.7653 442.205 79.296C441.757 78.8267 441.533 78.2293 441.533 77.504V67.968H436.829V64.128ZM456.743 64.128H461.255V60.864C461.255 59.9467 461.564 59.1787 462.183 58.56C462.802 57.92 463.57 57.6 464.487 57.6H470.951V61.44H466.151C465.575 61.44 465.287 61.76 465.287 62.4V64.128H471.527V67.968H465.287V80H461.255V67.968H456.743V64.128ZM492.017 72.256C492.017 73.5787 491.793 74.752 491.345 75.776C490.897 76.7787 490.289 77.632 489.521 78.336C488.753 79.0187 487.867 79.5413 486.865 79.904C485.883 80.2667 484.849 80.448 483.761 80.448C482.673 80.448 481.627 80.2667 480.625 79.904C479.643 79.5413 478.769 79.0187 478.001 78.336C477.233 77.632 476.625 76.7787 476.177 75.776C475.729 74.752 475.505 73.5787 475.505 72.256V71.872C475.505 70.5707 475.729 69.4187 476.177 68.416C476.625 67.392 477.233 66.528 478.001 65.824C478.769 65.12 479.643 64.5867 480.625 64.224C481.627 63.8613 482.673 63.68 483.761 63.68C484.849 63.68 485.883 63.8613 486.865 64.224C487.867 64.5867 488.753 65.12 489.521 65.824C490.289 66.528 490.897 67.392 491.345 68.416C491.793 69.4187 492.017 70.5707 492.017 71.872V72.256ZM483.761 76.608C484.337 76.608 484.881 76.512 485.393 76.32C485.905 76.128 486.353 75.8507 486.737 75.488C487.121 75.1253 487.419 74.688 487.633 74.176C487.867 73.6427 487.985 73.0453 487.985 72.384V71.744C487.985 71.0827 487.867 70.496 487.633 69.984C487.419 69.4507 487.121 69.0027 486.737 68.64C486.353 68.2773 485.905 68 485.393 67.808C484.881 67.616 484.337 67.52 483.761 67.52C483.185 67.52 482.641 67.616 482.129 67.808C481.617 68 481.169 68.2773 480.785 68.64C480.401 69.0027 480.091 69.4507 479.857 69.984C479.643 70.496 479.537 71.0827 479.537 71.744V72.384C479.537 73.0453 479.643 73.6427 479.857 74.176C480.091 74.688 480.401 75.1253 480.785 75.488C481.169 75.8507 481.617 76.128 482.129 76.32C482.641 76.512 483.185 76.608 483.761 76.608ZM495.963 76.16H501.531V61.44H496.155V57.6H505.563V76.16H510.747V80H495.963V76.16ZM515.94 76.16H521.316V67.968H516.324V64.128H525.348V76.16H529.956V80H515.94V76.16ZM526.34 59.424C526.34 59.8507 526.255 60.256 526.084 60.64C525.935 61.0027 525.722 61.3227 525.444 61.6C525.167 61.856 524.836 62.0693 524.452 62.24C524.09 62.3893 523.706 62.464 523.3 62.464C522.874 62.464 522.479 62.3893 522.116 62.24C521.754 62.0693 521.434 61.856 521.156 61.6C520.879 61.3227 520.655 61.0027 520.484 60.64C520.335 60.256 520.26 59.8507 520.26 59.424C520.26 58.9973 520.335 58.6027 520.484 58.24C520.655 57.856 520.879 57.536 521.156 57.28C521.434 57.0027 521.754 56.7893 522.116 56.64C522.479 56.4693 522.874 56.384 523.3 56.384C523.706 56.384 524.09 56.4693 524.452 56.64C524.836 56.7893 525.167 57.0027 525.444 57.28C525.722 57.536 525.935 57.856 526.084 58.24C526.255 58.6027 526.34 58.9973 526.34 59.424ZM550.798 72.256C550.798 73.5787 550.574 74.752 550.126 75.776C549.678 76.7787 549.07 77.632 548.302 78.336C547.534 79.0187 546.649 79.5413 545.646 79.904C544.665 80.2667 543.63 80.448 542.542 80.448C541.454 80.448 540.409 80.2667 539.406 79.904C538.425 79.5413 537.55 79.0187 536.782 78.336C536.014 77.632 535.406 76.7787 534.958 75.776C534.51 74.752 534.286 73.5787 534.286 72.256V71.872C534.286 70.5707 534.51 69.4187 534.958 68.416C535.406 67.392 536.014 66.528 536.782 65.824C537.55 65.12 538.425 64.5867 539.406 64.224C540.409 63.8613 541.454 63.68 542.542 63.68C543.63 63.68 544.665 63.8613 545.646 64.224C546.649 64.5867 547.534 65.12 548.302 65.824C549.07 66.528 549.678 67.392 550.126 68.416C550.574 69.4187 550.798 70.5707 550.798 71.872V72.256ZM542.542 76.608C543.118 76.608 543.662 76.512 544.174 76.32C544.686 76.128 545.134 75.8507 545.518 75.488C545.902 75.1253 546.201 74.688 546.414 74.176C546.649 73.6427 546.766 73.0453 546.766 72.384V71.744C546.766 71.0827 546.649 70.496 546.414 69.984C546.201 69.4507 545.902 69.0027 545.518 68.64C545.134 68.2773 544.686 68 544.174 67.808C543.662 67.616 543.118 67.52 542.542 67.52C541.966 67.52 541.422 67.616 540.91 67.808C540.398 68 539.95 68.2773 539.566 68.64C539.182 69.0027 538.873 69.4507 538.638 69.984C538.425 70.496 538.318 71.0827 538.318 71.744V72.384C538.318 73.0453 538.425 73.6427 538.638 74.176C538.873 74.688 539.182 75.1253 539.566 75.488C539.95 75.8507 540.398 76.128 540.91 76.32C541.422 76.512 541.966 76.608 542.542 76.608Z" fill="white"/>
<path d="M588.632 61.448C588.632 60.552 588.28 59.7733 587.576 59.112C586.893 58.4507 585.923 58.12 584.664 58.12C583.597 58.12 582.755 58.344 582.136 58.792C581.517 59.2187 581.208 59.8053 581.208 60.552C581.208 60.936 581.283 61.288 581.432 61.608C581.581 61.9067 581.837 62.184 582.2 62.44C582.584 62.6747 583.075 62.888 583.672 63.08C584.291 63.272 585.069 63.4533 586.008 63.624C588.355 64.0507 590.147 64.7653 591.384 65.768C592.621 66.7707 593.24 68.2533 593.24 70.216V70.6C593.24 71.6453 593.048 72.5947 592.664 73.448C592.301 74.28 591.768 74.9947 591.064 75.592C590.36 76.1893 589.507 76.648 588.504 76.968C587.501 77.288 586.371 77.448 585.112 77.448C583.64 77.448 582.339 77.2453 581.208 76.84C580.099 76.4133 579.171 75.8373 578.424 75.112C577.677 74.3653 577.112 73.5013 576.728 72.52C576.344 71.5173 576.152 70.4293 576.152 69.256V68.296H580.376V69.064C580.376 70.408 580.76 71.4853 581.528 72.296C582.317 73.0853 583.533 73.48 585.176 73.48C586.456 73.48 587.405 73.2027 588.024 72.648C588.643 72.0933 588.952 71.432 588.952 70.664C588.952 70.3013 588.888 69.96 588.76 69.64C588.632 69.2987 588.408 69 588.088 68.744C587.768 68.4667 587.331 68.2213 586.776 68.008C586.221 67.7947 585.517 67.6133 584.664 67.464C583.533 67.272 582.499 67.0267 581.56 66.728C580.621 66.408 579.8 65.992 579.096 65.48C578.413 64.968 577.88 64.328 577.496 63.56C577.112 62.792 576.92 61.8533 576.92 60.744V60.552C576.92 59.6347 577.101 58.792 577.464 58.024C577.848 57.2347 578.371 56.552 579.032 55.976C579.715 55.4 580.525 54.952 581.464 54.632C582.424 54.312 583.491 54.152 584.664 54.152C585.987 54.152 587.16 54.344 588.184 54.728C589.208 55.0907 590.061 55.592 590.744 56.232C591.448 56.872 591.971 57.608 592.312 58.44C592.675 59.272 592.856 60.1467 592.856 61.064V62.216H588.632V61.448ZM601.186 77H597.154V54.6H601.186V63.688H601.762C602.167 62.728 602.764 61.992 603.554 61.48C604.343 60.9467 605.314 60.68 606.466 60.68C607.255 60.68 607.98 60.808 608.642 61.064C609.303 61.32 609.879 61.704 610.37 62.216C610.86 62.728 611.244 63.3893 611.522 64.2C611.799 64.9893 611.938 65.928 611.938 67.016V77H607.906V67.976C607.906 66.8453 607.628 65.96 607.074 65.32C606.54 64.6587 605.762 64.328 604.738 64.328C603.543 64.328 602.647 64.7333 602.05 65.544C601.474 66.3333 601.186 67.4 601.186 68.744V77ZM632.236 69.256C632.236 70.5787 632.012 71.752 631.564 72.776C631.116 73.7787 630.508 74.632 629.74 75.336C628.972 76.0187 628.086 76.5413 627.084 76.904C626.102 77.2667 625.068 77.448 623.98 77.448C622.892 77.448 621.846 77.2667 620.844 76.904C619.862 76.5413 618.988 76.0187 618.22 75.336C617.452 74.632 616.844 73.7787 616.396 72.776C615.948 71.752 615.724 70.5787 615.724 69.256V68.872C615.724 67.5707 615.948 66.4187 616.396 65.416C616.844 64.392 617.452 63.528 618.22 62.824C618.988 62.12 619.862 61.5867 620.844 61.224C621.846 60.8613 622.892 60.68 623.98 60.68C625.068 60.68 626.102 60.8613 627.084 61.224C628.086 61.5867 628.972 62.12 629.74 62.824C630.508 63.528 631.116 64.392 631.564 65.416C632.012 66.4187 632.236 67.5707 632.236 68.872V69.256ZM623.98 73.608C624.556 73.608 625.1 73.512 625.612 73.32C626.124 73.128 626.572 72.8507 626.956 72.488C627.34 72.1253 627.638 71.688 627.852 71.176C628.086 70.6427 628.204 70.0453 628.204 69.384V68.744C628.204 68.0827 628.086 67.496 627.852 66.984C627.638 66.4507 627.34 66.0027 626.956 65.64C626.572 65.2773 626.124 65 625.612 64.808C625.1 64.616 624.556 64.52 623.98 64.52C623.404 64.52 622.86 64.616 622.348 64.808C621.836 65 621.388 65.2773 621.004 65.64C620.62 66.0027 620.31 66.4507 620.076 66.984C619.862 67.496 619.756 68.0827 619.756 68.744V69.384C619.756 70.0453 619.862 70.6427 620.076 71.176C620.31 71.688 620.62 72.1253 621.004 72.488C621.388 72.8507 621.836 73.128 622.348 73.32C622.86 73.512 623.404 73.608 623.98 73.608ZM639.477 83.4H635.445V61.128H639.477V63.432H640.053C640.48 62.5573 641.099 61.8853 641.909 61.416C642.72 60.9253 643.755 60.68 645.013 60.68C645.952 60.68 646.837 60.8613 647.669 61.224C648.523 61.5867 649.259 62.12 649.877 62.824C650.517 63.5067 651.019 64.3493 651.381 65.352C651.765 66.3547 651.957 67.496 651.957 68.776V69.352C651.957 70.6533 651.776 71.8053 651.413 72.808C651.051 73.8107 650.56 74.664 649.941 75.368C649.323 76.0507 648.587 76.5733 647.733 76.936C646.901 77.2773 645.995 77.448 645.013 77.448C644.288 77.448 643.659 77.3733 643.125 77.224C642.592 77.0747 642.123 76.872 641.717 76.616C641.333 76.36 641.003 76.072 640.725 75.752C640.469 75.4107 640.245 75.0587 640.053 74.696H639.477V83.4ZM643.701 73.608C644.96 73.608 645.973 73.224 646.741 72.456C647.531 71.6667 647.925 70.6 647.925 69.256V68.872C647.925 67.528 647.531 66.472 646.741 65.704C645.973 64.9147 644.96 64.52 643.701 64.52C642.443 64.52 641.419 64.9253 640.629 65.736C639.861 66.5253 639.477 67.5707 639.477 68.872V69.256C639.477 70.5573 639.861 71.6133 640.629 72.424C641.419 73.2133 642.443 73.608 643.701 73.608Z" fill="white"/>
<path d="M678.624 56.6H692.768V60.632H682.848V65.752H692.384V69.784H682.848V74.968H693.152V79H678.624V56.6ZM696.97 63.128H701.322L705.066 77.08H705.642L709.386 63.128H713.738L709.194 79H701.514L696.97 63.128ZM721.236 72.376C721.257 72.8453 721.364 73.2827 721.556 73.688C721.769 74.072 722.046 74.4133 722.388 74.712C722.75 74.9893 723.156 75.2133 723.604 75.384C724.073 75.5333 724.564 75.608 725.076 75.608C726.078 75.608 726.846 75.4373 727.38 75.096C727.913 74.7333 728.297 74.3067 728.532 73.816L731.988 75.736C731.796 76.1413 731.529 76.568 731.188 77.016C730.846 77.4427 730.398 77.8373 729.844 78.2C729.31 78.5627 728.649 78.8613 727.86 79.096C727.092 79.3307 726.185 79.448 725.14 79.448C723.945 79.448 722.857 79.256 721.876 78.872C720.894 78.488 720.041 77.9333 719.316 77.208C718.612 76.4827 718.057 75.5973 717.652 74.552C717.268 73.5067 717.076 72.3227 717.076 71V70.808C717.076 69.592 717.278 68.4827 717.684 67.48C718.11 66.4773 718.686 65.624 719.411 64.92C720.137 64.216 720.98 63.672 721.94 63.288C722.921 62.8827 723.966 62.68 725.076 62.68C726.441 62.68 727.614 62.9253 728.596 63.416C729.577 63.8853 730.388 64.4933 731.028 65.24C731.668 65.9653 732.137 66.776 732.436 67.672C732.734 68.5467 732.884 69.4 732.884 70.232V72.376H721.236ZM725.044 66.328C724.02 66.328 723.188 66.5947 722.548 67.128C721.908 67.64 721.492 68.2373 721.3 68.92H728.788C728.66 68.1733 728.254 67.5547 727.572 67.064C726.91 66.5733 726.068 66.328 725.044 66.328ZM741.309 79H737.277V63.128H741.309V65.496H741.885C742.248 64.6 742.835 63.9067 743.645 63.416C744.456 62.9253 745.405 62.68 746.493 62.68C747.261 62.68 747.976 62.808 748.637 63.064C749.32 63.2987 749.917 63.672 750.429 64.184C750.941 64.696 751.336 65.3467 751.613 66.136C751.912 66.9253 752.061 67.864 752.061 68.952V79H748.029V69.976C748.029 68.8453 747.752 67.96 747.197 67.32C746.664 66.6587 745.885 66.328 744.861 66.328C743.667 66.328 742.771 66.7333 742.173 67.544C741.597 68.3333 741.309 69.4 741.309 70.744V79ZM756.423 63.128H761.127V56.6H765.159V63.128H770.887V66.968H765.159V74.2C765.159 74.84 765.447 75.16 766.023 75.16H770.311V79H763.591C762.866 79 762.268 78.7653 761.799 78.296C761.351 77.8267 761.127 77.2293 761.127 76.504V66.968H756.423V63.128ZM781.521 67.608C781.521 68.12 781.787 68.4933 782.321 68.728C782.854 68.9413 783.825 69.1227 785.233 69.272C786.854 69.4427 788.177 69.9333 789.201 70.744C790.225 71.5333 790.737 72.6427 790.737 74.072V74.264C790.737 75.8427 790.161 77.1013 789.009 78.04C787.857 78.9787 786.235 79.448 784.145 79.448C782.907 79.448 781.851 79.288 780.977 78.968C780.102 78.648 779.377 78.2533 778.801 77.784C778.225 77.2933 777.777 76.76 777.457 76.184C777.158 75.5867 776.955 75.0107 776.849 74.456L780.561 73.24C780.731 73.9227 781.083 74.52 781.617 75.032C782.171 75.544 783.014 75.8 784.145 75.8C785.147 75.8 785.83 75.6507 786.193 75.352C786.577 75.032 786.769 74.6907 786.769 74.328C786.769 74.1147 786.715 73.9227 786.609 73.752C786.523 73.56 786.353 73.3893 786.097 73.24C785.841 73.0693 785.489 72.9307 785.041 72.824C784.614 72.7173 784.07 72.632 783.409 72.568C781.617 72.4187 780.187 71.96 779.121 71.192C778.075 70.4027 777.553 69.2507 777.553 67.736V67.544C777.553 66.7547 777.723 66.0613 778.065 65.464C778.406 64.8667 778.854 64.3653 779.409 63.96C779.963 63.5333 780.603 63.2133 781.329 63C782.054 62.7867 782.801 62.68 783.569 62.68C784.571 62.68 785.435 62.808 786.161 63.064C786.907 63.2987 787.537 63.6187 788.049 64.024C788.561 64.408 788.977 64.8453 789.297 65.336C789.617 65.8053 789.862 66.264 790.033 66.712L786.385 68.184C786.193 67.608 785.862 67.16 785.393 66.84C784.923 66.4987 784.315 66.328 783.569 66.328C782.886 66.328 782.374 66.456 782.033 66.712C781.691 66.9467 781.521 67.2453 781.521 67.608Z" fill="white"/>
<path d="M885.653 19.8079H892.4L877.659 36.6548L895 59.5798H881.422L870.788 45.6759L858.62 59.5798H851.869L867.635 41.5601L851 19.8079H864.922L874.535 32.5165L885.653 19.8079ZM883.285 55.5414H887.023L862.891 23.6341H858.879L883.285 55.5414Z" fill="white"/>
<g clip-path="url(#clip0_72_1127)">
<path d="M960 20.3219C966.413 20.3219 967.172 20.35 969.694 20.4625C972.038 20.5656 973.303 20.9594 974.147 21.2875C975.263 21.7188 976.069 22.2438 976.903 23.0781C977.747 23.9219 978.263 24.7188 978.694 25.8344C979.022 26.6781 979.416 27.9531 979.519 30.2875C979.631 32.8187 979.659 33.5781 979.659 39.9813C979.659 46.3938 979.631 47.1531 979.519 49.675C979.416 52.0188 979.022 53.2844 978.694 54.1281C978.263 55.2438 977.737 56.05 976.903 56.8844C976.059 57.7281 975.263 58.2438 974.147 58.675C973.303 59.0031 972.028 59.3969 969.694 59.5C967.163 59.6125 966.403 59.6406 960 59.6406C953.588 59.6406 952.828 59.6125 950.306 59.5C947.963 59.3969 946.697 59.0031 945.853 58.675C944.738 58.2438 943.931 57.7188 943.097 56.8844C942.253 56.0406 941.738 55.2438 941.306 54.1281C940.978 53.2844 940.584 52.0094 940.481 49.675C940.369 47.1438 940.341 46.3844 940.341 39.9813C940.341 33.5688 940.369 32.8094 940.481 30.2875C940.584 27.9437 940.978 26.6781 941.306 25.8344C941.738 24.7188 942.263 23.9125 943.097 23.0781C943.941 22.2344 944.738 21.7188 945.853 21.2875C946.697 20.9594 947.972 20.5656 950.306 20.4625C952.828 20.35 953.588 20.3219 960 20.3219ZM960 16C953.484 16 952.669 16.0281 950.109 16.1406C947.559 16.2531 945.806 16.6656 944.288 17.2562C942.703 17.875 941.363 18.6906 940.031 20.0312C938.691 21.3625 937.875 22.7031 937.256 24.2781C936.666 25.8063 936.253 27.55 936.141 30.1C936.028 32.6687 936 33.4844 936 40C936 46.5156 936.028 47.3312 936.141 49.8906C936.253 52.4406 936.666 54.1938 937.256 55.7125C937.875 57.2969 938.691 58.6375 940.031 59.9688C941.363 61.3 942.703 62.125 944.278 62.7344C945.806 63.325 947.55 63.7375 950.1 63.85C952.659 63.9625 953.475 63.9906 959.991 63.9906C966.506 63.9906 967.322 63.9625 969.881 63.85C972.431 63.7375 974.184 63.325 975.703 62.7344C977.278 62.125 978.619 61.3 979.95 59.9688C981.281 58.6375 982.106 57.2969 982.716 55.7219C983.306 54.1938 983.719 52.45 983.831 49.9C983.944 47.3406 983.972 46.525 983.972 40.0094C983.972 33.4938 983.944 32.6781 983.831 30.1188C983.719 27.5688 983.306 25.8156 982.716 24.2969C982.125 22.7031 981.309 21.3625 979.969 20.0312C978.638 18.7 977.297 17.875 975.722 17.2656C974.194 16.675 972.45 16.2625 969.9 16.15C967.331 16.0281 966.516 16 960 16Z" fill="white"/>
<path d="M960 27.6719C953.194 27.6719 947.672 33.1938 947.672 40C947.672 46.8062 953.194 52.3281 960 52.3281C966.806 52.3281 972.328 46.8062 972.328 40C972.328 33.1938 966.806 27.6719 960 27.6719ZM960 47.9969C955.584 47.9969 952.003 44.4156 952.003 40C952.003 35.5844 955.584 32.0031 960 32.0031C964.416 32.0031 967.997 35.5844 967.997 40C967.997 44.4156 964.416 47.9969 960 47.9969Z" fill="white"/>
<path d="M975.694 27.1843C975.694 28.778 974.4 30.0624 972.816 30.0624C971.222 30.0624 969.938 28.7687 969.938 27.1843C969.938 25.5905 971.231 24.3062 972.816 24.3062C974.4 24.3062 975.694 25.5999 975.694 27.1843Z" fill="white"/>
</g>
<path d="M1035 16L1026.43 24.5714V55.4286H1036.72V64L1045.29 55.4286H1052.14L1067.57 40V16H1035ZM1064.14 38.2857L1057.29 45.1429H1050.43L1044.43 51.1429V45.1429H1036.72V19.4286H1064.14V38.2857Z" fill="white"/>
<path d="M1059 25.4286H1055.57V35.7143H1059V25.4286Z" fill="white"/>
<path d="M1049.57 25.4286H1046.14V35.7143H1049.57V25.4286Z" fill="white"/>
<path d="M1139.2 64C1132 64 1126.6 60.3 1126.6 51.4V37.2H1120V29.5C1127.2 27.6 1130.2 21.4 1130.6 16H1138.1V28.2H1146.8V37.2H1138.1V49.6C1138.1 53.3 1140 54.6 1143 54.6H1147.2V64H1139.2Z" fill="white"/>
<path d="M1240.52 30.4001C1240.52 30.4001 1240.05 27.0907 1238.61 25.6376C1236.78 23.7251 1234.74 23.7157 1233.8 23.6032C1227.09 23.1157 1217.01 23.1157 1217.01 23.1157H1216.99C1216.99 23.1157 1206.91 23.1157 1200.2 23.6032C1199.26 23.7157 1197.22 23.7251 1195.39 25.6376C1193.95 27.0907 1193.49 30.4001 1193.49 30.4001C1193.49 30.4001 1193 34.2907 1193 38.172V41.8095C1193 45.6907 1193.48 49.5813 1193.48 49.5813C1193.48 49.5813 1193.95 52.8907 1195.38 54.3438C1197.21 56.2563 1199.61 56.1907 1200.68 56.397C1204.52 56.7626 1217 56.8751 1217 56.8751C1217 56.8751 1227.09 56.8563 1233.8 56.3782C1234.74 56.2657 1236.78 56.2563 1238.61 54.3438C1240.05 52.8907 1240.52 49.5813 1240.52 49.5813C1240.52 49.5813 1241 45.7001 1241 41.8095V38.172C1241 34.2907 1240.52 30.4001 1240.52 30.4001ZM1212.04 46.2251V32.7345L1225.01 39.5032L1212.04 46.2251Z" fill="white"/>
<path d="M857.32 94.672H866.92V106H863.08V103.504H862.504C862.248 104.336 861.757 105.04 861.032 105.616C860.307 106.171 859.219 106.448 857.768 106.448C856.744 106.448 855.784 106.256 854.888 105.872C853.992 105.488 853.213 104.923 852.552 104.176C851.891 103.408 851.368 102.469 850.984 101.36C850.6 100.229 850.408 98.9173 850.408 97.424V92.176C850.408 90.7253 850.611 89.4453 851.016 88.336C851.443 87.2053 852.019 86.256 852.744 85.488C853.491 84.72 854.376 84.144 855.4 83.76C856.424 83.3547 857.555 83.152 858.792 83.152C860.072 83.152 861.213 83.3653 862.216 83.792C863.219 84.1973 864.072 84.7733 864.776 85.52C865.48 86.2453 866.013 87.1093 866.376 88.112C866.739 89.0933 866.92 90.1493 866.92 91.28V91.664H862.696V91.28C862.696 89.936 862.344 88.9227 861.64 88.24C860.957 87.536 859.987 87.184 858.728 87.184C857.533 87.184 856.552 87.5893 855.784 88.4C855.016 89.1893 854.632 90.5547 854.632 92.496V97.232C854.632 100.688 856.04 102.416 858.856 102.416C860.115 102.416 861.064 102.085 861.704 101.424C862.365 100.741 862.696 99.8347 862.696 98.704H857.32V94.672ZM878.45 102.608C879.26 102.608 879.922 102.491 880.434 102.256C880.967 102 881.372 101.669 881.65 101.264C881.948 100.837 882.151 100.357 882.258 99.824C882.364 99.2693 882.418 98.704 882.418 98.128V97.552H886.642V98.128C886.642 100.795 885.938 102.853 884.53 104.304C883.143 105.733 881.116 106.448 878.45 106.448C875.89 106.448 873.863 105.669 872.37 104.112C870.876 102.555 870.13 100.283 870.13 97.296V92.304C870.13 90.8747 870.322 89.5947 870.706 88.464C871.09 87.312 871.644 86.352 872.37 85.584C873.095 84.7947 873.97 84.1973 874.994 83.792C876.018 83.3653 877.17 83.152 878.45 83.152C879.772 83.152 880.946 83.344 881.97 83.728C882.994 84.112 883.847 84.6667 884.53 85.392C885.234 86.1173 885.756 86.992 886.098 88.016C886.46 89.04 886.642 90.192 886.642 91.472V92.048H882.418V91.472C882.418 90.9387 882.354 90.4053 882.226 89.872C882.098 89.3387 881.884 88.8587 881.586 88.432C881.287 88.0053 880.882 87.664 880.37 87.408C879.858 87.1307 879.218 86.992 878.45 86.992C877.746 86.992 877.138 87.1307 876.626 87.408C876.114 87.664 875.687 88.0267 875.346 88.496C875.004 88.944 874.748 89.4773 874.578 90.096C874.428 90.6933 874.354 91.3227 874.354 91.984V97.616C874.354 98.3413 874.428 99.0133 874.578 99.632C874.727 100.229 874.962 100.752 875.282 101.2C875.602 101.648 876.018 102 876.53 102.256C877.063 102.491 877.703 102.608 878.45 102.608ZM901.788 101.2H894.172L893.084 106H888.668L894.012 83.6H901.948L907.292 106H902.876L901.788 101.2ZM895.068 97.168H900.86L898.268 85.712H897.692L895.068 97.168ZM925.765 100.176C925.403 102.053 924.539 103.568 923.173 104.72C921.829 105.872 920.027 106.448 917.765 106.448C916.592 106.448 915.493 106.267 914.469 105.904C913.467 105.541 912.592 105.019 911.845 104.336C911.099 103.653 910.512 102.811 910.085 101.808C909.659 100.805 909.445 99.664 909.445 98.384V98C909.445 96.72 909.659 95.568 910.085 94.544C910.512 93.52 911.099 92.6453 911.845 91.92C912.613 91.1947 913.499 90.64 914.501 90.256C915.525 89.872 916.613 89.68 917.765 89.68C919.984 89.68 921.776 90.256 923.141 91.408C924.528 92.56 925.403 94.0747 925.765 95.952L921.797 96.976C921.669 96.0373 921.264 95.2267 920.581 94.544C919.899 93.8613 918.939 93.52 917.701 93.52C917.125 93.52 916.581 93.6267 916.069 93.84C915.557 94.0533 915.109 94.3627 914.725 94.768C914.341 95.152 914.032 95.632 913.797 96.208C913.584 96.7627 913.477 97.392 913.477 98.096V98.288C913.477 98.992 913.584 99.6213 913.797 100.176C914.032 100.709 914.341 101.157 914.725 101.52C915.109 101.883 915.557 102.16 916.069 102.352C916.581 102.523 917.125 102.608 917.701 102.608C918.939 102.608 919.877 102.299 920.517 101.68C921.179 101.061 921.605 100.229 921.797 99.184L925.765 100.176ZM945.423 98.256C945.423 99.5787 945.199 100.752 944.751 101.776C944.303 102.779 943.695 103.632 942.927 104.336C942.159 105.019 941.274 105.541 940.271 105.904C939.29 106.267 938.255 106.448 937.167 106.448C936.079 106.448 935.034 106.267 934.031 105.904C933.05 105.541 932.175 105.019 931.407 104.336C930.639 103.632 930.031 102.779 929.583 101.776C929.135 100.752 928.911 99.5787 928.911 98.256V97.872C928.911 96.5707 929.135 95.4187 929.583 94.416C930.031 93.392 930.639 92.528 931.407 91.824C932.175 91.12 933.05 90.5867 934.031 90.224C935.034 89.8613 936.079 89.68 937.167 89.68C938.255 89.68 939.29 89.8613 940.271 90.224C941.274 90.5867 942.159 91.12 942.927 91.824C943.695 92.528 944.303 93.392 944.751 94.416C945.199 95.4187 945.423 96.5707 945.423 97.872V98.256ZM937.167 102.608C937.743 102.608 938.287 102.512 938.799 102.32C939.311 102.128 939.759 101.851 940.143 101.488C940.527 101.125 940.826 100.688 941.039 100.176C941.274 99.6427 941.391 99.0453 941.391 98.384V97.744C941.391 97.0827 941.274 96.496 941.039 95.984C940.826 95.4507 940.527 95.0027 940.143 94.64C939.759 94.2773 939.311 94 938.799 93.808C938.287 93.616 937.743 93.52 937.167 93.52C936.591 93.52 936.047 93.616 935.535 93.808C935.023 94 934.575 94.2773 934.191 94.64C933.807 95.0027 933.498 95.4507 933.263 95.984C933.05 96.496 932.943 97.0827 932.943 97.744V98.384C932.943 99.0453 933.05 99.6427 933.263 100.176C933.498 100.688 933.807 101.125 934.191 101.488C934.575 101.851 935.023 102.128 935.535 102.32C936.047 102.512 936.591 102.608 937.167 102.608ZM953.497 106H949.465V90.128H953.497V92.496H954.073C954.435 91.6 955.022 90.9067 955.833 90.416C956.643 89.9253 957.593 89.68 958.681 89.68C959.449 89.68 960.163 89.808 960.825 90.064C961.507 90.2987 962.105 90.672 962.617 91.184C963.129 91.696 963.523 92.3467 963.801 93.136C964.099 93.9253 964.249 94.864 964.249 95.952V106H960.217V96.976C960.217 95.8453 959.939 94.96 959.385 94.32C958.851 93.6587 958.073 93.328 957.049 93.328C955.854 93.328 954.958 93.7333 954.361 94.544C953.785 95.3333 953.497 96.4 953.497 97.744V106ZM968.611 90.128H973.315V83.6H977.347V90.128H983.075V93.968H977.347V101.2C977.347 101.84 977.635 102.16 978.211 102.16H982.499V106H975.779C975.053 106 974.456 105.765 973.987 105.296C973.539 104.827 973.315 104.229 973.315 103.504V93.968H968.611V90.128ZM998.924 103.696C998.498 104.699 997.9 105.413 997.132 105.84C996.364 106.245 995.468 106.448 994.444 106.448C993.484 106.448 992.578 106.267 991.724 105.904C990.892 105.541 990.156 105.008 989.516 104.304C988.876 103.6 988.364 102.747 987.98 101.744C987.618 100.741 987.436 99.6 987.436 98.32V97.808C987.436 96.5493 987.618 95.4187 987.98 94.416C988.343 93.4133 988.834 92.56 989.452 91.856C990.071 91.152 990.786 90.6187 991.596 90.256C992.428 89.872 993.314 89.68 994.252 89.68C995.383 89.68 996.29 89.872 996.972 90.256C997.676 90.64 998.231 91.2373 998.636 92.048H999.212V90.128H1003.24V101.2C1003.24 101.84 1003.53 102.16 1004.11 102.16H1004.72V106H1001.96C1001.24 106 1000.64 105.787 1000.17 105.36C999.724 104.933 999.5 104.379 999.5 103.696H998.924ZM995.34 102.608C996.514 102.608 997.452 102.224 998.156 101.456C998.86 100.667 999.212 99.6 999.212 98.256V97.872C999.212 96.528 998.86 95.472 998.156 94.704C997.452 93.9147 996.514 93.52 995.34 93.52C994.167 93.52 993.228 93.9147 992.524 94.704C991.82 95.472 991.468 96.528 991.468 97.872V98.256C991.468 99.6 991.82 100.667 992.524 101.456C993.228 102.224 994.167 102.608 995.34 102.608ZM1023.73 100.176C1023.37 102.053 1022.51 103.568 1021.14 104.72C1019.8 105.872 1018 106.448 1015.73 106.448C1014.56 106.448 1013.46 106.267 1012.44 105.904C1011.44 105.541 1010.56 105.019 1009.81 104.336C1009.07 103.653 1008.48 102.811 1008.05 101.808C1007.63 100.805 1007.41 99.664 1007.41 98.384V98C1007.41 96.72 1007.63 95.568 1008.05 94.544C1008.48 93.52 1009.07 92.6453 1009.81 91.92C1010.58 91.1947 1011.47 90.64 1012.47 90.256C1013.49 89.872 1014.58 89.68 1015.73 89.68C1017.95 89.68 1019.74 90.256 1021.11 91.408C1022.5 92.56 1023.37 94.0747 1023.73 95.952L1019.77 96.976C1019.64 96.0373 1019.23 95.2267 1018.55 94.544C1017.87 93.8613 1016.91 93.52 1015.67 93.52C1015.09 93.52 1014.55 93.6267 1014.04 93.84C1013.53 94.0533 1013.08 94.3627 1012.69 94.768C1012.31 95.152 1012 95.632 1011.77 96.208C1011.55 96.7627 1011.45 97.392 1011.45 98.096V98.288C1011.45 98.992 1011.55 99.6213 1011.77 100.176C1012 100.709 1012.31 101.157 1012.69 101.52C1013.08 101.883 1013.53 102.16 1014.04 102.352C1014.55 102.523 1015.09 102.608 1015.67 102.608C1016.91 102.608 1017.85 102.299 1018.49 101.68C1019.15 101.061 1019.57 100.229 1019.77 99.184L1023.73 100.176ZM1027.39 90.128H1032.1V83.6H1036.13V90.128H1041.86V93.968H1036.13V101.2C1036.13 101.84 1036.42 102.16 1036.99 102.16H1041.28V106H1034.56C1033.83 106 1033.24 105.765 1032.77 105.296C1032.32 104.827 1032.1 104.229 1032.1 103.504V93.968H1027.39V90.128ZM1046.86 89.68V85.84H1056.91C1059 85.84 1060.66 86.3947 1061.9 87.504C1063.13 88.6133 1063.75 90.2773 1063.75 92.496V103.376C1063.75 104.272 1063.47 105.008 1062.89 105.584C1062.33 106.16 1061.61 106.448 1060.71 106.448H1056.78C1055.97 106.448 1055.37 106.277 1054.99 105.936C1054.62 105.573 1054.41 105.147 1054.35 104.656H1053.77C1053.58 105.147 1053.23 105.573 1052.71 105.936C1052.22 106.277 1051.51 106.448 1050.57 106.448C1049.82 106.448 1049.13 106.299 1048.49 106C1047.87 105.723 1047.33 105.296 1046.86 104.72C1046.41 104.123 1046.05 103.376 1045.77 102.48C1045.51 101.584 1045.39 100.528 1045.39 99.312V99.12C1045.39 97.904 1045.52 96.848 1045.8 95.952C1046.1 95.056 1046.48 94.32 1046.95 93.744C1047.44 93.1467 1048.01 92.7093 1048.65 92.432C1049.31 92.1333 1050.01 91.984 1050.76 91.984C1051.57 91.984 1052.19 92.144 1052.62 92.464C1053.07 92.7627 1053.39 93.136 1053.58 93.584H1054.15V92.432H1057.99V101.904C1057.99 102.501 1058.28 102.8 1058.86 102.8H1059.05C1059.63 102.8 1059.91 102.501 1059.91 101.904V93.52C1059.91 90.96 1058.63 89.68 1056.07 89.68H1046.86ZM1051.72 102.8C1052.6 102.8 1053.21 102.48 1053.58 101.84C1053.96 101.179 1054.15 100.336 1054.15 99.312V99.12C1054.15 98.096 1053.96 97.264 1053.58 96.624C1053.21 95.9627 1052.6 95.632 1051.72 95.632C1050.91 95.632 1050.29 95.9627 1049.87 96.624C1049.44 97.264 1049.23 98.096 1049.23 99.12V99.312C1049.23 100.336 1049.44 101.179 1049.87 101.84C1050.29 102.48 1050.91 102.8 1051.72 102.8ZM1078.36 103.696H1077.78C1077.61 104.059 1077.4 104.411 1077.14 104.752C1076.9 105.072 1076.58 105.36 1076.18 105.616C1075.8 105.872 1075.33 106.075 1074.77 106.224C1074.24 106.373 1073.59 106.448 1072.82 106.448C1071.84 106.448 1070.92 106.277 1070.07 105.936C1069.24 105.573 1068.5 105.051 1067.86 104.368C1067.24 103.664 1066.75 102.811 1066.39 101.808C1066.05 100.805 1065.88 99.6533 1065.88 98.352V97.776C1065.88 96.496 1066.06 95.3547 1066.42 94.352C1066.8 93.3493 1067.32 92.5067 1067.96 91.824C1068.62 91.12 1069.37 90.5867 1070.23 90.224C1071.1 89.8613 1072.02 89.68 1072.98 89.68C1074.26 89.68 1075.27 89.9253 1076.02 90.416C1076.77 90.8853 1077.35 91.5573 1077.78 92.432H1078.36V90.128H1082.39V109.904C1082.39 110.629 1082.15 111.227 1081.68 111.696C1081.24 112.165 1080.65 112.4 1079.92 112.4H1069.24V108.56H1077.49C1078.07 108.56 1078.36 108.24 1078.36 107.6V103.696ZM1074.13 102.608C1075.39 102.608 1076.4 102.213 1077.17 101.424C1077.96 100.613 1078.36 99.5573 1078.36 98.256V97.872C1078.36 96.5707 1077.96 95.5253 1077.17 94.736C1076.4 93.9253 1075.39 93.52 1074.13 93.52C1072.87 93.52 1071.85 93.9147 1071.06 94.704C1070.29 95.472 1069.91 96.528 1069.91 97.872V98.256C1069.91 99.6 1070.29 100.667 1071.06 101.456C1071.85 102.224 1072.87 102.608 1074.13 102.608ZM1102.56 106H1098.53V94.864C1098.53 94.416 1098.41 94.0853 1098.17 93.872C1097.96 93.6373 1097.67 93.52 1097.31 93.52C1096.88 93.52 1096.54 93.648 1096.29 93.904C1096.05 94.16 1095.93 94.544 1095.93 95.056V106H1091.9V94.864C1091.9 94.416 1091.77 94.0853 1091.52 93.872C1091.28 93.6373 1090.99 93.52 1090.65 93.52C1090.27 93.52 1089.95 93.648 1089.69 93.904C1089.44 94.16 1089.31 94.544 1089.31 95.056V106H1085.28V90.128H1089.31V91.664H1089.89C1090.01 91.088 1090.3 90.6187 1090.75 90.256C1091.22 89.872 1091.83 89.68 1092.57 89.68C1093.28 89.68 1093.87 89.872 1094.37 90.256C1094.86 90.6187 1095.19 91.088 1095.36 91.664H1095.93C1096.1 91.088 1096.46 90.6187 1096.99 90.256C1097.54 89.872 1098.23 89.68 1099.04 89.68C1100.1 89.68 1100.96 90.0427 1101.6 90.768C1102.24 91.472 1102.56 92.4533 1102.56 93.712V106ZM1116.49 103.696C1116.06 104.699 1115.46 105.413 1114.69 105.84C1113.93 106.245 1113.03 106.448 1112.01 106.448C1111.05 106.448 1110.14 106.267 1109.29 105.904C1108.45 105.541 1107.72 105.008 1107.08 104.304C1106.44 103.6 1105.93 102.747 1105.54 101.744C1105.18 100.741 1105 99.6 1105 98.32V97.808C1105 96.5493 1105.18 95.4187 1105.54 94.416C1105.91 93.4133 1106.4 92.56 1107.01 91.856C1107.63 91.152 1108.35 90.6187 1109.16 90.256C1109.99 89.872 1110.88 89.68 1111.81 89.68C1112.95 89.68 1113.85 89.872 1114.53 90.256C1115.24 90.64 1115.79 91.2373 1116.2 92.048H1116.77V90.128H1120.81V101.2C1120.81 101.84 1121.09 102.16 1121.67 102.16H1122.28V106H1119.53C1118.8 106 1118.2 105.787 1117.73 105.36C1117.29 104.933 1117.06 104.379 1117.06 103.696H1116.49ZM1112.9 102.608C1114.08 102.608 1115.01 102.224 1115.72 101.456C1116.42 100.667 1116.77 99.6 1116.77 98.256V97.872C1116.77 96.528 1116.42 95.472 1115.72 94.704C1115.01 93.9147 1114.08 93.52 1112.9 93.52C1111.73 93.52 1110.79 93.9147 1110.09 94.704C1109.38 95.472 1109.03 96.528 1109.03 97.872V98.256C1109.03 99.6 1109.38 100.667 1110.09 101.456C1110.79 102.224 1111.73 102.608 1112.9 102.608ZM1126.1 102.16H1131.47V93.968H1126.48V90.128H1135.5V102.16H1140.11V106H1126.1V102.16ZM1136.5 85.424C1136.5 85.8507 1136.41 86.256 1136.24 86.64C1136.09 87.0027 1135.88 87.3227 1135.6 87.6C1135.32 87.856 1134.99 88.0693 1134.61 88.24C1134.25 88.3893 1133.86 88.464 1133.46 88.464C1133.03 88.464 1132.64 88.3893 1132.27 88.24C1131.91 88.0693 1131.59 87.856 1131.31 87.6C1131.04 87.3227 1130.81 87.0027 1130.64 86.64C1130.49 86.256 1130.42 85.8507 1130.42 85.424C1130.42 84.9973 1130.49 84.6027 1130.64 84.24C1130.81 83.856 1131.04 83.536 1131.31 83.28C1131.59 83.0027 1131.91 82.7893 1132.27 82.64C1132.64 82.4693 1133.03 82.384 1133.46 82.384C1133.86 82.384 1134.25 82.4693 1134.61 82.64C1134.99 82.7893 1135.32 83.0027 1135.6 83.28C1135.88 83.536 1136.09 83.856 1136.24 84.24C1136.41 84.6027 1136.5 84.9973 1136.5 85.424ZM1145.31 102.16H1150.87V87.44H1145.5V83.6H1154.91V102.16H1160.09V106H1145.31V102.16ZM1175.33 103.408C1175.33 103.835 1175.25 104.24 1175.08 104.624C1174.93 104.987 1174.71 105.307 1174.44 105.584C1174.16 105.84 1173.83 106.043 1173.44 106.192C1173.08 106.363 1172.7 106.448 1172.29 106.448C1171.87 106.448 1171.47 106.363 1171.11 106.192C1170.75 106.043 1170.43 105.84 1170.15 105.584C1169.87 105.307 1169.65 104.987 1169.48 104.624C1169.33 104.24 1169.25 103.835 1169.25 103.408C1169.25 102.981 1169.33 102.587 1169.48 102.224C1169.65 101.84 1169.87 101.52 1170.15 101.264C1170.43 100.987 1170.75 100.773 1171.11 100.624C1171.47 100.453 1171.87 100.368 1172.29 100.368C1172.7 100.368 1173.08 100.453 1173.44 100.624C1173.83 100.773 1174.16 100.987 1174.44 101.264C1174.71 101.52 1174.93 101.84 1175.08 102.224C1175.25 102.587 1175.33 102.981 1175.33 103.408ZM1200.08 100.176C1199.72 102.053 1198.85 103.568 1197.49 104.72C1196.14 105.872 1194.34 106.448 1192.08 106.448C1190.9 106.448 1189.81 106.267 1188.78 105.904C1187.78 105.541 1186.9 105.019 1186.16 104.336C1185.41 103.653 1184.82 102.811 1184.4 101.808C1183.97 100.805 1183.76 99.664 1183.76 98.384V98C1183.76 96.72 1183.97 95.568 1184.4 94.544C1184.82 93.52 1185.41 92.6453 1186.16 91.92C1186.93 91.1947 1187.81 90.64 1188.81 90.256C1189.84 89.872 1190.93 89.68 1192.08 89.68C1194.3 89.68 1196.09 90.256 1197.45 91.408C1198.84 92.56 1199.72 94.0747 1200.08 95.952L1196.11 96.976C1195.98 96.0373 1195.58 95.2267 1194.89 94.544C1194.21 93.8613 1193.25 93.52 1192.01 93.52C1191.44 93.52 1190.89 93.6267 1190.38 93.84C1189.87 94.0533 1189.42 94.3627 1189.04 94.768C1188.65 95.152 1188.34 95.632 1188.11 96.208C1187.9 96.7627 1187.79 97.392 1187.79 98.096V98.288C1187.79 98.992 1187.9 99.6213 1188.11 100.176C1188.34 100.709 1188.65 101.157 1189.04 101.52C1189.42 101.883 1189.87 102.16 1190.38 102.352C1190.89 102.523 1191.44 102.608 1192.01 102.608C1193.25 102.608 1194.19 102.299 1194.83 101.68C1195.49 101.061 1195.92 100.229 1196.11 99.184L1200.08 100.176ZM1219.74 98.256C1219.74 99.5787 1219.51 100.752 1219.06 101.776C1218.62 102.779 1218.01 103.632 1217.24 104.336C1216.47 105.019 1215.59 105.541 1214.58 105.904C1213.6 106.267 1212.57 106.448 1211.48 106.448C1210.39 106.448 1209.35 106.267 1208.34 105.904C1207.36 105.541 1206.49 105.019 1205.72 104.336C1204.95 103.632 1204.34 102.779 1203.9 101.776C1203.45 100.752 1203.22 99.5787 1203.22 98.256V97.872C1203.22 96.5707 1203.45 95.4187 1203.9 94.416C1204.34 93.392 1204.95 92.528 1205.72 91.824C1206.49 91.12 1207.36 90.5867 1208.34 90.224C1209.35 89.8613 1210.39 89.68 1211.48 89.68C1212.57 89.68 1213.6 89.8613 1214.58 90.224C1215.59 90.5867 1216.47 91.12 1217.24 91.824C1218.01 92.528 1218.62 93.392 1219.06 94.416C1219.51 95.4187 1219.74 96.5707 1219.74 97.872V98.256ZM1211.48 102.608C1212.06 102.608 1212.6 102.512 1213.11 102.32C1213.62 102.128 1214.07 101.851 1214.46 101.488C1214.84 101.125 1215.14 100.688 1215.35 100.176C1215.59 99.6427 1215.7 99.0453 1215.7 98.384V97.744C1215.7 97.0827 1215.59 96.496 1215.35 95.984C1215.14 95.4507 1214.84 95.0027 1214.46 94.64C1214.07 94.2773 1213.62 94 1213.11 93.808C1212.6 93.616 1212.06 93.52 1211.48 93.52C1210.9 93.52 1210.36 93.616 1209.85 93.808C1209.34 94 1208.89 94.2773 1208.5 94.64C1208.12 95.0027 1207.81 95.4507 1207.58 95.984C1207.36 96.496 1207.26 97.0827 1207.26 97.744V98.384C1207.26 99.0453 1207.36 99.6427 1207.58 100.176C1207.81 100.688 1208.12 101.125 1208.5 101.488C1208.89 101.851 1209.34 102.128 1209.85 102.32C1210.36 102.512 1210.9 102.608 1211.48 102.608ZM1239.71 106H1235.68V94.864C1235.68 94.416 1235.56 94.0853 1235.33 93.872C1235.12 93.6373 1234.83 93.52 1234.47 93.52C1234.04 93.52 1233.7 93.648 1233.44 93.904C1233.21 94.16 1233.09 94.544 1233.09 95.056V106H1229.06V94.864C1229.06 94.416 1228.93 94.0853 1228.67 93.872C1228.44 93.6373 1228.15 93.52 1227.81 93.52C1227.43 93.52 1227.11 93.648 1226.85 93.904C1226.59 94.16 1226.47 94.544 1226.47 95.056V106H1222.43V90.128H1226.47V91.664H1227.04C1227.17 91.088 1227.46 90.6187 1227.91 90.256C1228.37 89.872 1228.98 89.68 1229.73 89.68C1230.43 89.68 1231.03 89.872 1231.52 90.256C1232.01 90.6187 1232.34 91.088 1232.51 91.664H1233.09C1233.26 91.088 1233.61 90.6187 1234.15 90.256C1234.7 89.872 1235.38 89.68 1236.19 89.68C1237.26 89.68 1238.11 90.0427 1238.75 90.768C1239.39 91.472 1239.71 92.4533 1239.71 93.712V106Z" fill="white"/>
<path d="M1286.46 101.3C1285.47 101.3 1284.69 101.02 1284.12 100.46C1283.55 99.9 1283.26 99.06 1283.26 97.94C1283.26 96.7933 1283.57 95.94 1284.18 95.38C1284.81 94.8067 1285.61 94.52 1286.6 94.52C1286.99 94.52 1287.35 94.56 1287.68 94.64C1288.01 94.72 1288.33 94.84 1288.64 95L1288.1 96.4C1287.83 96.28 1287.58 96.1933 1287.34 96.14C1287.1 96.0733 1286.85 96.04 1286.6 96.04C1286.16 96.04 1285.81 96.2 1285.56 96.52C1285.32 96.84 1285.2 97.3133 1285.2 97.94C1285.2 98.5667 1285.32 99.0333 1285.56 99.34C1285.81 99.6467 1286.15 99.8 1286.58 99.8C1286.89 99.8 1287.2 99.7533 1287.52 99.66C1287.84 99.5533 1288.16 99.42 1288.48 99.26V100.8C1288.17 100.96 1287.86 101.087 1287.54 101.18C1287.22 101.26 1286.86 101.3 1286.46 101.3ZM1286 106.52C1284.8 106.52 1283.67 106.293 1282.62 105.84C1281.58 105.4 1280.66 104.787 1279.86 104C1279.07 103.2 1278.45 102.28 1278 101.24C1277.56 100.187 1277.34 99.06 1277.34 97.86C1277.34 96.66 1277.56 95.54 1278 94.5C1278.45 93.4467 1279.07 92.5267 1279.86 91.74C1280.66 90.94 1281.58 90.32 1282.62 89.88C1283.67 89.4267 1284.8 89.2 1286 89.2C1287.2 89.2 1288.32 89.4267 1289.36 89.88C1290.41 90.32 1291.33 90.94 1292.12 91.74C1292.92 92.5267 1293.54 93.4467 1293.98 94.5C1294.43 95.54 1294.66 96.66 1294.66 97.86C1294.66 99.06 1294.43 100.187 1293.98 101.24C1293.54 102.28 1292.92 103.2 1292.12 104C1291.33 104.787 1290.41 105.4 1289.36 105.84C1288.32 106.293 1287.2 106.52 1286 106.52ZM1286 104.74C1286.96 104.74 1287.85 104.567 1288.68 104.22C1289.51 103.86 1290.23 103.367 1290.86 102.74C1291.5 102.1 1291.99 101.367 1292.34 100.54C1292.7 99.7 1292.88 98.8067 1292.88 97.86C1292.88 96.9 1292.7 96.0067 1292.34 95.18C1291.99 94.3533 1291.5 93.6267 1290.86 93C1290.23 92.36 1289.5 91.8667 1288.66 91.52C1287.83 91.16 1286.95 90.98 1286 90.98C1285.04 90.98 1284.15 91.16 1283.32 91.52C1282.49 91.8667 1281.76 92.36 1281.12 93C1280.49 93.6267 1280 94.36 1279.64 95.2C1279.29 96.0267 1279.12 96.9133 1279.12 97.86C1279.12 98.82 1279.29 99.7133 1279.64 100.54C1280 101.367 1280.49 102.1 1281.12 102.74C1281.76 103.367 1282.49 103.86 1283.32 104.22C1284.16 104.567 1285.05 104.74 1286 104.74ZM1319.39 102.48V105H1309.55V102.24C1309.55 101.507 1309.65 100.88 1309.87 100.36C1310.09 99.84 1310.41 99.4 1310.81 99.04C1311.22 98.68 1311.71 98.3867 1312.29 98.16C1312.86 97.92 1313.51 97.72 1314.23 97.56C1314.76 97.44 1315.19 97.3067 1315.53 97.16C1315.87 97 1316.15 96.8267 1316.35 96.64C1316.55 96.44 1316.68 96.2267 1316.75 96C1316.83 95.76 1316.87 95.4933 1316.87 95.2C1316.87 94.64 1316.66 94.1733 1316.25 93.8C1315.85 93.4267 1315.29 93.24 1314.57 93.24C1313.81 93.24 1313.2 93.4733 1312.75 93.94C1312.29 94.3933 1312.07 95.0267 1312.07 95.84V96.72H1309.43V95.6C1309.43 94.9467 1309.54 94.3267 1309.77 93.74C1310.01 93.14 1310.34 92.62 1310.77 92.18C1311.21 91.7267 1311.74 91.3733 1312.37 91.12C1312.99 90.8533 1313.7 90.72 1314.49 90.72C1315.33 90.72 1316.06 90.8467 1316.69 91.1C1317.31 91.34 1317.83 91.66 1318.25 92.06C1318.67 92.46 1318.99 92.9267 1319.19 93.46C1319.4 93.98 1319.51 94.52 1319.51 95.08V95.32C1319.51 96.4933 1319.17 97.4667 1318.51 98.24C1317.85 99.0133 1316.78 99.5733 1315.29 99.92C1314.66 100.067 1314.14 100.22 1313.73 100.38C1313.33 100.527 1313.01 100.693 1312.79 100.88C1312.56 101.067 1312.4 101.273 1312.31 101.5C1312.23 101.713 1312.19 101.96 1312.19 102.24V102.48H1319.39ZM1324.93 98C1324.93 97.5467 1325.1 97.1533 1325.43 96.82C1325.77 96.4867 1326.16 96.32 1326.61 96.32C1327.07 96.32 1327.46 96.4867 1327.79 96.82C1328.13 97.1533 1328.29 97.5467 1328.29 98C1328.29 98.4533 1328.13 98.8467 1327.79 99.18C1327.46 99.5133 1327.07 99.68 1326.61 99.68C1326.16 99.68 1325.77 99.5133 1325.43 99.18C1325.1 98.8467 1324.93 98.4533 1324.93 98ZM1321.45 96.44C1321.45 94.6267 1321.91 93.22 1322.81 92.22C1323.73 91.22 1325 90.72 1326.61 90.72C1328.23 90.72 1329.49 91.22 1330.39 92.22C1331.31 93.22 1331.77 94.6267 1331.77 96.44V99.56C1331.77 101.427 1331.31 102.847 1330.39 103.82C1329.49 104.793 1328.23 105.28 1326.61 105.28C1325 105.28 1323.73 104.793 1322.81 103.82C1321.91 102.847 1321.45 101.427 1321.45 99.56V96.44ZM1326.61 102.88C1327.09 102.88 1327.49 102.807 1327.81 102.66C1328.13 102.5 1328.39 102.28 1328.59 102C1328.79 101.72 1328.93 101.387 1329.01 101C1329.09 100.613 1329.13 100.187 1329.13 99.72V96.28C1329.13 95.84 1329.09 95.4267 1328.99 95.04C1328.9 94.6533 1328.75 94.32 1328.55 94.04C1328.35 93.76 1328.09 93.54 1327.77 93.38C1327.45 93.2067 1327.07 93.12 1326.61 93.12C1326.16 93.12 1325.77 93.2067 1325.45 93.38C1325.13 93.54 1324.87 93.76 1324.67 94.04C1324.47 94.32 1324.33 94.6533 1324.23 95.04C1324.14 95.4267 1324.09 95.84 1324.09 96.28V99.72C1324.09 100.187 1324.13 100.613 1324.21 101C1324.29 101.387 1324.43 101.72 1324.63 102C1324.83 102.28 1325.09 102.5 1325.41 102.66C1325.73 102.807 1326.13 102.88 1326.61 102.88ZM1343.88 102.48V105H1334.04V102.24C1334.04 101.507 1334.14 100.88 1334.36 100.36C1334.58 99.84 1334.9 99.4 1335.3 99.04C1335.71 98.68 1336.2 98.3867 1336.78 98.16C1337.35 97.92 1338 97.72 1338.72 97.56C1339.25 97.44 1339.68 97.3067 1340.02 97.16C1340.36 97 1340.64 96.8267 1340.84 96.64C1341.04 96.44 1341.17 96.2267 1341.24 96C1341.32 95.76 1341.36 95.4933 1341.36 95.2C1341.36 94.64 1341.15 94.1733 1340.74 93.8C1340.34 93.4267 1339.78 93.24 1339.06 93.24C1338.3 93.24 1337.69 93.4733 1337.24 93.94C1336.78 94.3933 1336.56 95.0267 1336.56 95.84V96.72H1333.92V95.6C1333.92 94.9467 1334.03 94.3267 1334.26 93.74C1334.5 93.14 1334.83 92.62 1335.26 92.18C1335.7 91.7267 1336.23 91.3733 1336.86 91.12C1337.48 90.8533 1338.19 90.72 1338.98 90.72C1339.82 90.72 1340.55 90.8467 1341.18 91.1C1341.8 91.34 1342.32 91.66 1342.74 92.06C1343.16 92.46 1343.48 92.9267 1343.68 93.46C1343.89 93.98 1344 94.52 1344 95.08V95.32C1344 96.4933 1343.66 97.4667 1343 98.24C1342.34 99.0133 1341.27 99.5733 1339.78 99.92C1339.15 100.067 1338.63 100.22 1338.22 100.38C1337.82 100.527 1337.5 100.693 1337.28 100.88C1337.05 101.067 1336.89 101.273 1336.8 101.5C1336.72 101.713 1336.68 101.96 1336.68 102.24V102.48H1343.88ZM1349.62 91H1354.62V99.84H1356.66V102.36H1354.62V105H1351.98V102.36H1345.74V98.72L1349.62 91ZM1348.02 99.48V99.84H1351.98V92.32H1351.62L1348.02 99.48ZM1374.68 97.92H1380.68V105H1378.28V103.44H1377.92C1377.76 103.96 1377.45 104.4 1377 104.76C1376.54 105.107 1375.86 105.28 1374.96 105.28C1374.32 105.28 1373.72 105.16 1373.16 104.92C1372.6 104.68 1372.11 104.327 1371.7 103.86C1371.28 103.38 1370.96 102.793 1370.72 102.1C1370.48 101.393 1370.36 100.573 1370.36 99.64V96.36C1370.36 95.4533 1370.48 94.6533 1370.74 93.96C1371 93.2533 1371.36 92.66 1371.82 92.18C1372.28 91.7 1372.84 91.34 1373.48 91.1C1374.12 90.8467 1374.82 90.72 1375.6 90.72C1376.4 90.72 1377.11 90.8533 1377.74 91.12C1378.36 91.3733 1378.9 91.7333 1379.34 92.2C1379.78 92.6533 1380.11 93.1933 1380.34 93.82C1380.56 94.4333 1380.68 95.0933 1380.68 95.8V96.04H1378.04V95.8C1378.04 94.96 1377.82 94.3267 1377.38 93.9C1376.95 93.46 1376.34 93.24 1375.56 93.24C1374.81 93.24 1374.2 93.4933 1373.72 94C1373.24 94.4933 1373 95.3467 1373 96.56V99.52C1373 101.68 1373.88 102.76 1375.64 102.76C1376.42 102.76 1377.02 102.553 1377.42 102.14C1377.83 101.713 1378.04 101.147 1378.04 100.44H1374.68V97.92ZM1387.88 102.88C1388.39 102.88 1388.8 102.807 1389.12 102.66C1389.46 102.5 1389.71 102.293 1389.88 102.04C1390.07 101.773 1390.2 101.473 1390.26 101.14C1390.33 100.793 1390.36 100.44 1390.36 100.08V99.72H1393V100.08C1393 101.747 1392.56 103.033 1391.68 103.94C1390.82 104.833 1389.55 105.28 1387.88 105.28C1386.28 105.28 1385.02 104.793 1384.08 103.82C1383.15 102.847 1382.68 101.427 1382.68 99.56V96.44C1382.68 95.5467 1382.8 94.7467 1383.04 94.04C1383.28 93.32 1383.63 92.72 1384.08 92.24C1384.54 91.7467 1385.08 91.3733 1385.72 91.12C1386.36 90.8533 1387.08 90.72 1387.88 90.72C1388.71 90.72 1389.44 90.84 1390.08 91.08C1390.72 91.32 1391.26 91.6667 1391.68 92.12C1392.12 92.5733 1392.45 93.12 1392.66 93.76C1392.89 94.4 1393 95.12 1393 95.92V96.28H1390.36V95.92C1390.36 95.5867 1390.32 95.2533 1390.24 94.92C1390.16 94.5867 1390.03 94.2867 1389.84 94.02C1389.66 93.7533 1389.4 93.54 1389.08 93.38C1388.76 93.2067 1388.36 93.12 1387.88 93.12C1387.44 93.12 1387.06 93.2067 1386.74 93.38C1386.42 93.54 1386.16 93.7667 1385.94 94.06C1385.73 94.34 1385.57 94.6733 1385.46 95.06C1385.37 95.4333 1385.32 95.8267 1385.32 96.24V99.76C1385.32 100.213 1385.37 100.633 1385.46 101.02C1385.56 101.393 1385.7 101.72 1385.9 102C1386.1 102.28 1386.36 102.5 1386.68 102.66C1387.02 102.807 1387.42 102.88 1387.88 102.88ZM1402.47 102H1397.71L1397.03 105H1394.27L1397.61 91H1402.57L1405.91 105H1403.15L1402.47 102ZM1398.27 99.48H1401.89L1400.27 92.32H1399.91L1398.27 99.48Z" fill="white"/>
<defs>
<clipPath id="clip0_72_1127">
<rect width="48" height="48" fill="white" transform="translate(936 16)"/>
</clipPath>
</defs>
</svg>
