<svg width="354" height="232" viewBox="0 0 354 232" fill="none" xmlns="http://www.w3.org/2000/svg">
<rect x="7.5" y="12.3102" width="339" height="211.716" rx="41.5" fill="#F445B2" stroke="black" stroke-width="15"/>
<path d="M66.3359 162.804C59.0751 162.804 52.7824 161.432 47.4578 158.689C42.1332 155.893 37.9919 152.155 35.0338 147.475C32.1295 142.796 30.6773 137.66 30.6773 132.066V83.0158C30.6773 77.3685 32.1295 72.2321 35.0338 67.6067C37.9919 62.9276 42.1332 59.2165 47.4578 56.4735C52.7824 53.6768 59.0751 52.2784 66.3359 52.2784H91.1839C98.4447 52.2784 104.737 53.6768 110.062 56.4735C115.44 59.2165 119.582 62.9276 122.486 67.6067C125.39 72.2321 126.843 77.3685 126.843 83.0158V132.066C126.843 137.66 125.39 142.796 122.486 147.475C119.582 152.155 115.44 155.893 110.062 158.689C104.737 161.432 98.4447 162.804 91.1839 162.804H66.3359ZM73.1126 126.258H93.2815L101.43 125.29L106.674 120.207L107.803 113.269V92.0514H84.4072V100.684H99.2515V112.059C98.9826 112.919 98.7943 113.726 98.6867 114.479C98.5792 115.232 98.3909 116.039 98.122 116.899L92.7974 117.706H73.274L68.3528 116.899L67.2233 111.736V73.5767L68.0301 69.1396L73.274 67.9294H94.2496L102.559 69.3009L104.173 60.6686L94.8143 59.5392H73.1126L64.8837 60.83L59.7205 65.9932L58.591 72.77V113.269L59.7205 120.207L65.0451 125.29L73.1126 126.258ZM161.856 162.804C154.595 162.804 148.302 161.432 142.978 158.689C137.653 155.893 133.512 152.155 130.554 147.475C127.649 142.796 126.197 137.66 126.197 132.066V83.0158C126.197 77.3685 127.649 72.2321 130.554 67.6067C133.512 62.9276 137.653 59.2165 142.978 56.4735C148.302 53.6768 154.595 52.2784 161.856 52.2784H186.704C193.965 52.2784 200.257 53.6768 205.582 56.4735C210.96 59.2165 215.102 62.9276 218.006 67.6067C220.91 72.2321 222.362 77.3685 222.362 83.0158V132.066C222.362 137.66 220.91 142.796 218.006 147.475C215.102 152.155 210.96 155.893 205.582 158.689C200.257 161.432 193.965 162.804 186.704 162.804H161.856ZM166.212 126.258H185.655L195.094 125.128L193.077 116.415L185.494 117.706H166.696L161.372 116.899L160.242 112.059V73.254L161.049 68.8169L166.696 67.9294H185.171L193.48 69.3009L195.094 60.6686L185.655 59.5392H166.212L157.903 60.5073L152.82 65.6705L151.61 72.4473V113.43L152.82 120.207L158.064 125.29L166.212 126.258ZM257.375 162.804C250.115 162.804 243.822 161.432 238.497 158.689C233.173 155.893 229.031 152.155 226.073 147.475C223.169 142.796 221.717 137.66 221.717 132.066V83.0158C221.717 77.3685 223.169 72.2321 226.073 67.6067C229.031 62.9276 233.173 59.2165 238.497 56.4735C243.822 53.6768 250.115 52.2784 257.375 52.2784H282.224C289.484 52.2784 295.777 53.6768 301.102 56.4735C306.48 59.2165 310.621 62.9276 313.526 67.6067C316.43 72.2321 317.882 77.3685 317.882 83.0158V132.066C317.882 137.66 316.43 142.796 313.526 147.475C310.621 152.155 306.48 155.893 301.102 158.689C295.777 161.432 289.484 162.804 282.224 162.804H257.375ZM245.839 126.258H255.439L257.537 101.652H287.306L289.646 126.258H298.843L292.469 66.1546L287.467 61.1527L276.738 59.5392H268.105L257.375 61.1527L252.454 66.1546L245.839 126.258ZM258.263 93.907L260.683 69.3009L268.509 68.0908H276.415L283.998 69.3009L286.661 93.907H258.263Z" fill="black"/>
<path d="M38.648 186.656H48.632V197.408H46.136V194.72H45.752C45.3893 195.658 44.7493 196.416 43.832 196.992C42.9147 197.568 41.848 197.856 40.632 197.856C38.2213 197.856 36.3227 197.077 34.936 195.52C33.5707 193.962 32.888 191.69 32.888 188.704V183.712C32.888 180.81 33.5813 178.56 34.968 176.96C36.3547 175.36 38.2853 174.56 40.76 174.56C42.04 174.56 43.1707 174.773 44.152 175.2C45.1333 175.605 45.9547 176.181 46.616 176.928C47.2773 177.653 47.7787 178.517 48.12 179.52C48.4613 180.501 48.632 181.557 48.632 182.688V183.072H45.944V182.688C45.944 181.962 45.8373 181.258 45.624 180.576C45.432 179.893 45.1227 179.296 44.696 178.784C44.2907 178.25 43.7573 177.834 43.096 177.536C42.456 177.216 41.6773 177.056 40.76 177.056C39.032 177.056 37.7307 177.685 36.856 178.944C36.0027 180.202 35.576 181.856 35.576 183.904V188.512C35.576 190.709 36.0027 192.405 36.856 193.6C37.7307 194.773 39.0533 195.36 40.824 195.36C42.424 195.36 43.672 194.848 44.568 193.824C45.4853 192.8 45.944 191.37 45.944 189.536V189.152H38.648V186.656ZM64.8978 194.72H64.5138C64.0018 195.786 63.2871 196.576 62.3698 197.088C61.4738 197.6 60.5244 197.856 59.5218 197.856C58.4764 197.856 57.5058 197.685 56.6098 197.344C55.7138 196.981 54.9244 196.458 54.2418 195.776C53.5804 195.072 53.0578 194.218 52.6738 193.216C52.2898 192.213 52.0978 191.05 52.0978 189.728V189.216C52.0978 187.914 52.2898 186.762 52.6738 185.76C53.0578 184.757 53.5804 183.914 54.2418 183.232C54.9244 182.528 55.7138 181.994 56.6098 181.632C57.5058 181.269 58.4551 181.088 59.4578 181.088C60.5458 181.088 61.5271 181.333 62.4018 181.824C63.2978 182.293 64.0018 183.029 64.5138 184.032H64.8978V181.536H67.3938V194.144C67.3938 194.784 67.6818 195.104 68.2578 195.104H69.0578V197.408H67.3618C66.6364 197.408 66.0391 197.173 65.5698 196.704C65.1218 196.234 64.8978 195.637 64.8978 194.912V194.72ZM59.7778 195.488C60.5244 195.488 61.2071 195.349 61.8258 195.072C62.4658 194.794 63.0098 194.4 63.4578 193.888C63.9058 193.376 64.2578 192.768 64.5138 192.064C64.7698 191.338 64.8978 190.538 64.8978 189.664V189.28C64.8978 188.426 64.7698 187.648 64.5138 186.944C64.2578 186.218 63.8951 185.6 63.4258 185.088C62.9778 184.576 62.4338 184.181 61.7938 183.904C61.1751 183.605 60.5031 183.456 59.7778 183.456C59.0311 183.456 58.3484 183.594 57.7298 183.872C57.1111 184.149 56.5671 184.544 56.0978 185.056C55.6498 185.546 55.2978 186.154 55.0418 186.88C54.7858 187.584 54.6578 188.362 54.6578 189.216V189.728C54.6578 191.541 55.1271 192.96 56.0658 193.984C57.0258 194.986 58.2631 195.488 59.7778 195.488ZM88.2355 197.408H85.7395V186.016C85.7395 185.269 85.5688 184.661 85.2275 184.192C84.8862 183.701 84.3422 183.456 83.5955 183.456C82.8915 183.456 82.3155 183.722 81.8675 184.256C81.4408 184.768 81.2275 185.568 81.2275 186.656V197.408H78.7315V185.888C78.7315 185.184 78.5395 184.608 78.1555 184.16C77.7715 183.69 77.2595 183.456 76.6195 183.456C75.8515 183.456 75.2542 183.733 74.8275 184.288C74.4222 184.842 74.2195 185.568 74.2195 186.464V197.408H71.7235V181.536H74.2195V183.264H74.6035C74.8808 182.517 75.2862 181.973 75.8195 181.632C76.3528 181.269 76.9822 181.088 77.7075 181.088C78.4755 181.088 79.1048 181.29 79.5955 181.696C80.1075 182.101 80.4595 182.624 80.6515 183.264H81.0355C81.7608 181.813 82.9128 181.088 84.4915 181.088C85.6862 181.088 86.6035 181.472 87.2435 182.24C87.9048 182.986 88.2355 183.968 88.2355 185.184V197.408ZM94.3893 190.24C94.4533 191.818 94.9439 193.088 95.8613 194.048C96.7786 195.008 98.0586 195.488 99.7013 195.488C100.448 195.488 101.099 195.402 101.653 195.232C102.208 195.061 102.677 194.826 103.061 194.528C103.467 194.229 103.787 193.888 104.021 193.504C104.277 193.098 104.48 192.672 104.629 192.224L106.997 192.864C106.549 194.336 105.717 195.541 104.501 196.48C103.307 197.397 101.685 197.856 99.6373 197.856C98.5066 197.856 97.4613 197.664 96.5013 197.28C95.5626 196.874 94.7519 196.309 94.0693 195.584C93.3866 194.858 92.8533 193.994 92.4693 192.992C92.0853 191.989 91.8932 190.88 91.8932 189.664V188.896C91.8932 187.786 92.0853 186.752 92.4693 185.792C92.8746 184.832 93.4293 184.01 94.1333 183.328C94.8373 182.624 95.6586 182.08 96.5973 181.696C97.5573 181.29 98.5919 181.088 99.7013 181.088C101.003 181.088 102.123 181.333 103.061 181.824C104.021 182.293 104.8 182.88 105.397 183.584C106.016 184.288 106.464 185.056 106.741 185.888C107.04 186.72 107.189 187.488 107.189 188.192V190.24H94.3893ZM99.7013 183.456C98.9973 183.456 98.3359 183.573 97.7173 183.808C97.1199 184.021 96.5866 184.33 96.1173 184.736C95.6693 185.141 95.2959 185.621 94.9973 186.176C94.7199 186.709 94.5386 187.296 94.4533 187.936H104.693C104.651 187.253 104.48 186.634 104.181 186.08C103.904 185.525 103.531 185.056 103.061 184.672C102.613 184.288 102.091 183.989 101.493 183.776C100.917 183.562 100.32 183.456 99.7013 183.456Z" fill="black"/>
<path d="M125.92 195.36C126.837 195.36 127.616 195.21 128.256 194.912C128.917 194.592 129.451 194.176 129.856 193.664C130.283 193.13 130.592 192.533 130.784 191.872C130.997 191.189 131.104 190.474 131.104 189.728V189.344H133.792V189.728C133.792 190.858 133.621 191.925 133.28 192.928C132.939 193.909 132.437 194.773 131.776 195.52C131.115 196.245 130.293 196.821 129.312 197.248C128.331 197.653 127.2 197.856 125.92 197.856C123.445 197.856 121.515 197.077 120.128 195.52C118.741 193.962 118.048 191.69 118.048 188.704V183.712C118.048 180.81 118.741 178.56 120.128 176.96C121.515 175.36 123.445 174.56 125.92 174.56C127.2 174.56 128.331 174.773 129.312 175.2C130.293 175.605 131.115 176.181 131.776 176.928C132.437 177.653 132.939 178.517 133.28 179.52C133.621 180.501 133.792 181.557 133.792 182.688V183.072H131.104V182.688C131.083 181.962 130.965 181.258 130.752 180.576C130.56 179.893 130.251 179.296 129.824 178.784C129.419 178.25 128.896 177.834 128.256 177.536C127.616 177.216 126.837 177.056 125.92 177.056C124.192 177.056 122.891 177.685 122.016 178.944C121.163 180.202 120.736 181.856 120.736 183.904V188.512C120.736 190.709 121.163 192.405 122.016 193.6C122.891 194.773 124.192 195.36 125.92 195.36ZM153.354 189.664C153.354 190.986 153.13 192.16 152.682 193.184C152.255 194.186 151.679 195.04 150.954 195.744C150.228 196.426 149.375 196.949 148.394 197.312C147.434 197.674 146.431 197.856 145.386 197.856C144.319 197.856 143.306 197.674 142.346 197.312C141.386 196.949 140.543 196.426 139.818 195.744C139.092 195.04 138.506 194.186 138.058 193.184C137.631 192.16 137.418 190.986 137.418 189.664V189.28C137.418 187.978 137.631 186.826 138.058 185.824C138.506 184.8 139.092 183.936 139.818 183.232C140.564 182.528 141.418 181.994 142.378 181.632C143.338 181.269 144.34 181.088 145.386 181.088C146.431 181.088 147.434 181.269 148.394 181.632C149.354 181.994 150.196 182.528 150.922 183.232C151.668 183.936 152.255 184.8 152.682 185.824C153.13 186.826 153.354 187.978 153.354 189.28V189.664ZM145.386 195.488C146.154 195.488 146.858 195.36 147.498 195.104C148.159 194.826 148.735 194.432 149.226 193.92C149.716 193.408 150.1 192.8 150.378 192.096C150.655 191.37 150.794 190.56 150.794 189.664V189.28C150.794 188.426 150.655 187.648 150.378 186.944C150.1 186.218 149.716 185.6 149.226 185.088C148.735 184.576 148.159 184.181 147.498 183.904C146.836 183.605 146.132 183.456 145.386 183.456C144.639 183.456 143.935 183.605 143.274 183.904C142.612 184.181 142.036 184.576 141.546 185.088C141.055 185.6 140.671 186.218 140.394 186.944C140.116 187.648 139.978 188.426 139.978 189.28V189.664C139.978 190.56 140.116 191.37 140.394 192.096C140.671 192.8 141.055 193.408 141.546 193.92C142.036 194.432 142.602 194.826 143.242 195.104C143.903 195.36 144.618 195.488 145.386 195.488ZM173.236 197.408H170.74V186.016C170.74 185.269 170.569 184.661 170.228 184.192C169.886 183.701 169.342 183.456 168.596 183.456C167.892 183.456 167.316 183.722 166.868 184.256C166.441 184.768 166.228 185.568 166.228 186.656V197.408H163.732V185.888C163.732 185.184 163.54 184.608 163.156 184.16C162.772 183.69 162.26 183.456 161.62 183.456C160.852 183.456 160.254 183.733 159.828 184.288C159.422 184.842 159.22 185.568 159.22 186.464V197.408H156.724V181.536H159.22V183.264H159.604C159.881 182.517 160.286 181.973 160.82 181.632C161.353 181.269 161.982 181.088 162.708 181.088C163.476 181.088 164.105 181.29 164.595 181.696C165.108 182.101 165.46 182.624 165.652 183.264H166.036C166.761 181.813 167.913 181.088 169.492 181.088C170.686 181.088 171.604 181.472 172.244 182.24C172.905 182.986 173.236 183.968 173.236 185.184V197.408ZM182.493 176.8C182.493 176.181 182.707 175.658 183.133 175.232C183.581 174.784 184.115 174.56 184.733 174.56C185.352 174.56 185.875 174.784 186.301 175.232C186.749 175.658 186.973 176.181 186.973 176.8C186.973 177.418 186.749 177.952 186.301 178.4C185.875 178.826 185.352 179.04 184.733 179.04C184.115 179.04 183.581 178.826 183.133 178.4C182.707 177.952 182.493 177.418 182.493 176.8ZM177.949 195.104H183.517V183.84H178.525V181.536H186.013V195.104H191.197V197.408H177.949V195.104ZM212.007 191.776C211.836 192.65 211.538 193.461 211.111 194.208C210.706 194.954 210.183 195.605 209.543 196.16C208.903 196.693 208.156 197.109 207.303 197.408C206.45 197.706 205.5 197.856 204.455 197.856C203.346 197.856 202.29 197.674 201.287 197.312C200.306 196.949 199.442 196.426 198.695 195.744C197.948 195.04 197.351 194.186 196.903 193.184C196.476 192.181 196.263 191.029 196.263 189.728V189.344C196.263 188.064 196.476 186.912 196.903 185.888C197.351 184.864 197.948 184 198.695 183.296C199.442 182.592 200.306 182.048 201.287 181.664C202.29 181.28 203.346 181.088 204.455 181.088C205.458 181.088 206.386 181.237 207.239 181.536C208.092 181.834 208.839 182.261 209.479 182.816C210.14 183.349 210.674 183.989 211.079 184.736C211.506 185.482 211.794 186.293 211.943 187.168L209.447 187.744C209.383 187.189 209.223 186.656 208.967 186.144C208.732 185.61 208.402 185.152 207.975 184.768C207.57 184.362 207.068 184.042 206.471 183.808C205.874 183.573 205.18 183.456 204.391 183.456C203.623 183.456 202.898 183.605 202.215 183.904C201.554 184.181 200.967 184.586 200.455 185.12C199.943 185.632 199.538 186.25 199.239 186.976C198.962 187.701 198.823 188.49 198.823 189.344V189.728C198.823 190.624 198.962 191.434 199.239 192.16C199.538 192.864 199.943 193.461 200.455 193.952C200.967 194.442 201.564 194.826 202.247 195.104C202.93 195.36 203.666 195.488 204.455 195.488C205.244 195.488 205.927 195.37 206.503 195.136C207.1 194.88 207.602 194.56 208.007 194.176C208.434 193.77 208.764 193.312 208.999 192.8C209.255 192.288 209.426 191.754 209.511 191.2L212.007 191.776Z" fill="black"/>
<path d="M234.592 191.84H224.992L223.36 197.408H220.48L227.264 175.008H232.32L239.104 197.408H236.224L234.592 191.84ZM229.6 176.16L225.728 189.344H233.856L229.984 176.16H229.6ZM244.874 197.408H242.378V181.536H244.874V184.224H245.258C246.239 182.133 247.946 181.088 250.378 181.088C252.212 181.088 253.674 181.664 254.762 182.816C255.85 183.946 256.394 185.653 256.394 187.936V197.408H253.898V188.448C253.898 186.784 253.524 185.536 252.778 184.704C252.031 183.872 251.018 183.456 249.738 183.456C248.223 183.456 247.028 183.978 246.154 185.024C245.3 186.048 244.874 187.424 244.874 189.152V197.408ZM266.9 176.8C266.9 176.181 267.113 175.658 267.54 175.232C267.988 174.784 268.521 174.56 269.14 174.56C269.758 174.56 270.281 174.784 270.708 175.232C271.156 175.658 271.38 176.181 271.38 176.8C271.38 177.418 271.156 177.952 270.708 178.4C270.281 178.826 269.758 179.04 269.14 179.04C268.521 179.04 267.988 178.826 267.54 178.4C267.113 177.952 266.9 177.418 266.9 176.8ZM262.356 195.104H267.924V183.84H262.932V181.536H270.42V195.104H275.604V197.408H262.356V195.104ZM296.829 197.408H294.333V186.016C294.333 185.269 294.163 184.661 293.821 184.192C293.48 183.701 292.936 183.456 292.189 183.456C291.485 183.456 290.909 183.722 290.461 184.256C290.035 184.768 289.821 185.568 289.821 186.656V197.408H287.325V185.888C287.325 185.184 287.133 184.608 286.749 184.16C286.365 183.69 285.853 183.456 285.213 183.456C284.445 183.456 283.848 183.733 283.421 184.288C283.016 184.842 282.813 185.568 282.813 186.464V197.408H280.317V181.536H282.813V183.264H283.197C283.475 182.517 283.88 181.973 284.413 181.632C284.947 181.269 285.576 181.088 286.301 181.088C287.069 181.088 287.699 181.29 288.189 181.696C288.701 182.101 289.053 182.624 289.245 183.264H289.629C290.355 181.813 291.507 181.088 293.085 181.088C294.28 181.088 295.197 181.472 295.837 182.24C296.499 182.986 296.829 183.968 296.829 185.184V197.408ZM302.983 190.24C303.047 191.818 303.538 193.088 304.455 194.048C305.372 195.008 306.652 195.488 308.295 195.488C309.042 195.488 309.692 195.402 310.247 195.232C310.802 195.061 311.271 194.826 311.655 194.528C312.06 194.229 312.38 193.888 312.615 193.504C312.871 193.098 313.074 192.672 313.223 192.224L315.591 192.864C315.143 194.336 314.311 195.541 313.095 196.48C311.9 197.397 310.279 197.856 308.231 197.856C307.1 197.856 306.055 197.664 305.095 197.28C304.156 196.874 303.346 196.309 302.663 195.584C301.98 194.858 301.447 193.994 301.063 192.992C300.679 191.989 300.487 190.88 300.487 189.664V188.896C300.487 187.786 300.679 186.752 301.063 185.792C301.468 184.832 302.023 184.01 302.727 183.328C303.431 182.624 304.252 182.08 305.191 181.696C306.151 181.29 307.186 181.088 308.295 181.088C309.596 181.088 310.716 181.333 311.655 181.824C312.615 182.293 313.394 182.88 313.991 183.584C314.61 184.288 315.058 185.056 315.335 185.888C315.634 186.72 315.783 187.488 315.783 188.192V190.24H302.983ZM308.295 183.456C307.591 183.456 306.93 183.573 306.311 183.808C305.714 184.021 305.18 184.33 304.711 184.736C304.263 185.141 303.89 185.621 303.591 186.176C303.314 186.709 303.132 187.296 303.047 187.936H313.287C313.244 187.253 313.074 186.634 312.775 186.08C312.498 185.525 312.124 185.056 311.655 184.672C311.207 184.288 310.684 183.989 310.087 183.776C309.511 183.562 308.914 183.456 308.295 183.456Z" fill="black"/>
</svg>
