<svg width="236" height="132" viewBox="0 0 236 132" fill="none" xmlns="http://www.w3.org/2000/svg">
<rect x="3.5" y="3.5" width="229" height="125" rx="30.5" fill="#F445B2" stroke="black" stroke-width="7"/>
<path d="M49.3476 101C45.1666 101 41.5431 100.21 38.477 98.6308C35.4109 97.0203 33.0262 94.8678 31.3228 92.1734C29.6504 89.479 28.8142 86.5213 28.8142 83.3003V55.0552C28.8142 51.8033 29.6504 48.8457 31.3228 46.1822C33.0262 43.4878 35.4109 41.3508 38.477 39.7713C41.5431 38.1608 45.1666 37.3556 49.3476 37.3556H63.656C67.837 37.3556 71.4606 38.1608 74.5267 39.7713C77.6237 41.3508 80.0084 43.4878 81.6808 46.1822C83.3533 48.8457 84.1895 51.8033 84.1895 55.0552V83.3003C84.1895 86.5213 83.3533 89.479 81.6808 92.1734C80.0084 94.8678 77.6237 97.0203 74.5267 98.6308C71.4606 100.21 67.837 101 63.656 101H49.3476ZM53.2499 79.9555H64.8639L69.5559 79.3981L72.5755 76.4714L73.2259 72.4762V60.2583H59.7537V65.2291H68.3016V71.7793C68.1467 72.2748 68.0383 72.7394 67.9764 73.173C67.9145 73.6066 67.8061 74.0711 67.6512 74.5667L64.5851 75.0312H53.3428L50.509 74.5667L49.8586 71.5935V49.6199L50.3232 47.0648L53.3428 46.368H65.4213L70.2063 47.1578L71.1354 42.187L65.7465 41.5366H53.2499L48.5114 42.2799L45.5383 45.2531L44.8879 49.1554V72.4762L45.5383 76.4714L48.6043 79.3981L53.2499 79.9555ZM104.351 101C100.17 101 96.5467 100.21 93.4806 98.6308C90.4145 97.0203 88.0298 94.8678 86.3264 92.1734C84.654 89.479 83.8178 86.5213 83.8178 83.3003V55.0552C83.8178 51.8033 84.654 48.8457 86.3264 46.1822C88.0298 43.4878 90.4145 41.3508 93.4806 39.7713C96.5467 38.1608 100.17 37.3556 104.351 37.3556H118.66C122.841 37.3556 126.464 38.1608 129.53 39.7713C132.627 41.3508 135.012 43.4878 136.684 46.1822C138.357 48.8457 139.193 51.8033 139.193 55.0552V83.3003C139.193 86.5213 138.357 89.479 136.684 92.1734C135.012 94.8678 132.627 97.0203 129.53 98.6308C126.464 100.21 122.841 101 118.66 101H104.351ZM106.86 79.9555H118.056L123.491 79.3052L122.33 74.2879L117.963 75.0312H107.139L104.073 74.5667L103.422 71.7793V49.4341L103.887 46.879L107.139 46.368H117.777L122.562 47.1578L123.491 42.187L118.056 41.5366H106.86L102.075 42.0941L99.1482 45.0672L98.4514 48.9695V72.5691L99.1482 76.4714L102.168 79.3981L106.86 79.9555ZM159.355 101C155.174 101 151.55 100.21 148.484 98.6308C145.418 97.0203 143.033 94.8678 141.33 92.1734C139.658 89.479 138.821 86.5213 138.821 83.3003V55.0552C138.821 51.8033 139.658 48.8457 141.33 46.1822C143.033 43.4878 145.418 41.3508 148.484 39.7713C151.55 38.1608 155.174 37.3556 159.355 37.3556H173.663C177.844 37.3556 181.468 38.1608 184.534 39.7713C187.631 41.3508 190.016 43.4878 191.688 46.1822C193.361 48.8457 194.197 51.8033 194.197 55.0552V83.3003C194.197 86.5213 193.361 89.479 191.688 92.1734C190.016 94.8678 187.631 97.0203 184.534 98.6308C181.468 100.21 177.844 101 173.663 101H159.355ZM152.712 79.9555H158.24L159.448 65.7865H176.59L177.937 79.9555H183.233L179.563 45.346L176.683 42.4657L170.504 41.5366H165.534L159.355 42.4657L156.521 45.346L152.712 79.9555ZM159.866 61.3268L161.26 47.1578L165.766 46.4609H170.318L174.685 47.1578L176.218 61.3268H159.866Z" fill="black"/>
</svg>
