<svg width="236" height="211" viewBox="0 0 236 211" fill="none" xmlns="http://www.w3.org/2000/svg">
<rect x="3.5" y="3.5" width="229" height="204" rx="30.5" fill="#F445B2" stroke="black" stroke-width="7"/>
<path d="M55.3476 132C51.1666 132 47.5431 131.21 44.477 129.631C41.4109 128.02 39.0262 125.868 37.3228 123.173C35.6504 120.479 34.8142 117.521 34.8142 114.3V86.0552C34.8142 82.8033 35.6504 79.8457 37.3228 77.1822C39.0262 74.4878 41.4109 72.3508 44.477 70.7713C47.5431 69.1608 51.1666 68.3556 55.3476 68.3556H69.656C73.837 68.3556 77.4606 69.1608 80.5267 70.7713C83.6237 72.3508 86.0084 74.4878 87.6808 77.1822C89.3533 79.8457 90.1895 82.8033 90.1895 86.0552V114.3C90.1895 117.521 89.3533 120.479 87.6808 123.173C86.0084 125.868 83.6237 128.02 80.5267 129.631C77.4606 131.21 73.837 132 69.656 132H55.3476ZM59.2499 110.956H70.8639L75.5559 110.398L78.5755 107.471L79.2259 103.476V91.2583H65.7537V96.2291H74.3016V102.779C74.1467 103.275 74.0383 103.739 73.9764 104.173C73.9145 104.607 73.8061 105.071 73.6512 105.567L70.5851 106.031H59.3428L56.509 105.567L55.8586 102.593V80.6199L56.3232 78.0648L59.3428 77.368H71.4213L76.2063 78.1578L77.1354 73.187L71.7465 72.5366H59.2499L54.5114 73.2799L51.5383 76.2531L50.8879 80.1554V103.476L51.5383 107.471L54.6043 110.398L59.2499 110.956ZM110.351 132C106.17 132 102.547 131.21 99.4806 129.631C96.4145 128.02 94.0298 125.868 92.3264 123.173C90.654 120.479 89.8178 117.521 89.8178 114.3V86.0552C89.8178 82.8033 90.654 79.8457 92.3264 77.1822C94.0298 74.4878 96.4145 72.3508 99.4806 70.7713C102.547 69.1608 106.17 68.3556 110.351 68.3556H124.66C128.841 68.3556 132.464 69.1608 135.53 70.7713C138.627 72.3508 141.012 74.4878 142.684 77.1822C144.357 79.8457 145.193 82.8033 145.193 86.0552V114.3C145.193 117.521 144.357 120.479 142.684 123.173C141.012 125.868 138.627 128.02 135.53 129.631C132.464 131.21 128.841 132 124.66 132H110.351ZM112.86 110.956H124.056L129.491 110.305L128.33 105.288L123.963 106.031H113.139L110.073 105.567L109.422 102.779V80.4341L109.887 77.879L113.139 77.368H123.777L128.562 78.1578L129.491 73.187L124.056 72.5366H112.86L108.075 73.0941L105.148 76.0672L104.451 79.9695V103.569L105.148 107.471L108.168 110.398L112.86 110.956ZM165.355 132C161.174 132 157.55 131.21 154.484 129.631C151.418 128.02 149.033 125.868 147.33 123.173C145.658 120.479 144.821 117.521 144.821 114.3V86.0552C144.821 82.8033 145.658 79.8457 147.33 77.1822C149.033 74.4878 151.418 72.3508 154.484 70.7713C157.55 69.1608 161.174 68.3556 165.355 68.3556H179.663C183.844 68.3556 187.468 69.1608 190.534 70.7713C193.631 72.3508 196.016 74.4878 197.688 77.1822C199.361 79.8457 200.197 82.8033 200.197 86.0552V114.3C200.197 117.521 199.361 120.479 197.688 123.173C196.016 125.868 193.631 128.02 190.534 129.631C187.468 131.21 183.844 132 179.663 132H165.355ZM158.712 110.956H164.24L165.448 96.7865H182.59L183.937 110.956H189.233L185.563 76.346L182.683 73.4657L176.504 72.5366H171.534L165.355 73.4657L162.521 76.346L158.712 110.956ZM165.866 92.3268L167.26 78.1578L171.766 77.4609H176.318L180.685 78.1578L182.218 92.3268H165.866Z" fill="black"/>
</svg>
